<svg width="50" height="51" viewBox="0 0 50 51" fill="none" xmlns="http://www.w3.org/2000/svg">
<rect y="0.613281" width="50" height="50" rx="4" fill="#F7B512"/>
<path d="M15.2656 22.1191H19.7513V35.6132H15.2656V22.1191Z" fill="white"/>
<path d="M17.5376 15.6133C16.0032 15.6133 15 16.6207 15 17.9448C15 19.2398 15.9734 20.2759 17.4787 20.2759H17.5079C19.0723 20.2759 20.0458 19.2398 20.0458 17.9448C20.0166 16.6207 19.0723 15.6133 17.5376 15.6133Z" fill="white"/>
<path d="M30.7598 21.8027C28.3798 21.8027 27.3134 23.1106 26.7172 24.0302V22.1194H22.2314V35.6135H26.7171V28.0778C26.7171 27.6744 26.7463 27.2717 26.8647 26.9832C27.189 26.1776 27.927 25.343 29.1662 25.343C30.7894 25.343 31.4387 26.5805 31.4387 28.3945V35.6135H35.924V27.8762C35.924 23.7314 33.7109 21.8027 30.7598 21.8027Z" fill="white"/>
</svg>
