<svg width="154" height="114" viewBox="0 0 154 114" fill="none" xmlns="http://www.w3.org/2000/svg">
<path fill-rule="evenodd" clip-rule="evenodd" d="M107.608 92.7244C118.951 64.3522 132.384 35.084 153.129 9.84766C137.757 9.84766 132.981 15.2234 125.817 20.0019L121.041 24.0338C119.101 27.9163 117.459 31.7988 115.668 35.6813C110.146 48.3741 105.668 61.5149 101.489 74.3571C98.8027 81.6741 94.773 86.9006 89.997 90.3351C85.818 93.3217 81.1913 94.6656 76.5646 94.6656C71.9379 94.6656 67.3112 93.1723 63.1322 90.1858C58.5055 86.9006 54.4758 81.6741 52.0878 74.6557C48.5058 61.2163 43.7299 48.2248 38.0584 35.6813C36.2675 31.7988 34.4765 27.9163 32.387 24.1831L27.611 20.1512C22.9843 17.0154 15.6711 9.99699 0 9.99699C20.5963 35.8306 36.2674 63.4562 46.1179 93.023C57.61 120.051 95.0715 120.947 107.758 92.8737" fill="#F8FAF9"/>
<path fill-rule="evenodd" clip-rule="evenodd" d="M98.0025 73.3122C102.184 60.3249 106.813 47.1884 112.338 34.3503C117.415 22.7066 123.089 11.3614 129.958 0.613281C123.537 1.35968 120.402 4.19597 116.967 7.18155C116.22 7.92795 115.324 8.52507 114.727 9.12219L87.2509 37.4852C83.667 41.2172 80.0832 43.0085 76.4994 43.0085C72.9155 43.0085 69.3317 41.0679 66.0465 37.3359L38.8689 9.12219C38.2716 8.67435 37.9729 8.37579 37.525 7.92795C34.6877 5.3902 30.5066 1.50896 23.3389 0.613281C30.2079 11.5107 36.3303 22.7066 41.5568 34.2011C47.3805 46.8898 52.159 59.8771 55.7429 73.4615C57.9828 79.5819 61.4173 84.2096 65.4491 87.0459C68.8836 89.4343 72.7661 90.7779 76.6487 90.7779C80.5312 90.7779 84.4137 89.5836 87.8482 87.1952C92.0294 84.3589 95.6132 79.7312 97.8531 73.3122" fill="#F8FAF9"/>
</svg>
