<svg width="610" height="254" viewBox="0 0 610 254" fill="none" xmlns="http://www.w3.org/2000/svg">
<path d="M599.641 9.76182V20.2739H598.139V7.95975H600.542L603.545 17.4206C603.545 17.721 603.695 17.8712 603.695 18.0213C603.695 18.0213 603.695 18.3217 603.695 18.4719C603.695 18.3217 603.695 18.0213 603.695 17.8712C603.695 17.721 603.695 17.5708 603.695 17.4206L606.849 7.95975H609.252V20.2739H607.6V9.76182C607.6 9.912 607.6 10.0622 607.6 10.3625C607.6 10.5127 607.6 10.6629 607.45 10.9632L604.296 20.4241H602.644L599.491 10.9632C599.491 10.813 599.491 10.6629 599.34 10.5127C599.34 10.3625 599.34 10.2123 599.34 9.91198M590.931 20.2739V9.3113H587.026V7.80957H596.487V9.3113H592.583V20.2739H590.931Z" fill="white"/>
<path d="M443.011 88.7532V105.573C436.853 108.726 430.696 111.129 424.389 112.781C418.082 114.433 411.775 115.334 405.617 115.334C399.46 115.334 394.054 114.583 388.648 112.931C383.242 111.429 378.136 109.027 373.33 106.023C365.671 100.917 359.664 94.4598 355.309 86.6508C350.954 78.8418 348.852 70.282 348.852 61.1214C348.852 51.9609 350.204 47.4557 353.057 40.8481C355.91 34.2405 359.965 28.5339 365.071 23.7284C370.627 18.4723 376.784 14.5678 383.692 12.0149C390.6 9.46192 398.259 8.11035 406.518 8.11035C414.778 8.11035 418.082 8.71105 423.939 10.0626C429.645 11.4142 435.652 13.5166 441.959 16.3699V32.4384C435.352 28.8342 429.195 26.2813 423.338 24.4792C417.631 22.8273 411.925 21.9263 406.518 21.9263C394.354 21.9263 384.443 25.6806 376.484 33.1892C368.525 40.6979 364.62 50.1588 364.62 61.5719C364.62 72.9851 368.525 82.1456 376.334 89.8045C384.143 97.3131 393.904 101.067 405.768 101.067C417.631 101.067 417.932 100.016 424.089 98.064C430.246 95.9616 436.553 92.9581 443.011 88.7532ZM522.001 147.921V44.9027H535.817V48.6571C538.37 46.855 541.073 45.5034 543.927 44.6024C546.78 43.7014 549.934 43.2508 553.388 43.2508C563.299 43.2508 571.408 46.5546 577.565 53.1622C583.873 59.7699 586.876 68.3297 586.876 78.992C586.876 89.6543 583.723 98.064 577.565 104.822C571.258 111.429 563.299 114.733 553.388 114.733C543.476 114.733 546.63 114.283 543.777 113.532C540.923 112.781 538.22 111.429 535.667 109.627V147.921H521.851H522.001ZM535.817 59.92V98.3643C538.07 100.016 540.323 101.218 542.575 101.968C544.828 102.719 547.381 103.17 549.934 103.17C556.842 103.17 562.398 101.067 566.453 96.7124C570.507 92.3574 572.46 86.5006 572.46 79.1422C572.46 71.7837 570.507 65.9269 566.453 61.7221C562.398 57.5173 556.992 55.4148 549.934 55.4148C542.875 55.4148 544.828 55.8654 542.575 56.466C540.323 57.2169 538.07 58.4183 535.817 60.0702V59.92ZM490.015 113.382V44.7526H503.68V113.382H490.015ZM489.114 24.6294C489.114 22.3768 489.864 20.5747 491.366 19.073C492.868 17.5713 494.67 16.8204 496.923 16.8204C499.175 16.8204 500.977 17.5713 502.479 19.073C503.981 20.5747 504.732 22.3768 504.732 24.6294C504.732 26.882 503.981 28.684 502.479 30.1858C500.977 31.6875 499.175 32.4384 496.923 32.4384C494.67 32.4384 492.868 31.6875 491.366 30.1858C489.864 28.684 489.114 26.882 489.114 24.6294ZM458.028 113.382V9.46192H471.694V113.382H458.028ZM302.599 99.8661L273.766 44.7526H288.933L310.107 84.8487L329.78 44.7526H344.647L293.739 147.771H278.871L302.599 99.7159V99.8661ZM164.139 113.382V9.46192H177.054L214.447 53.0121L251.84 9.46192H264.755V113.382H250.339V32.2882L214.447 74.1865L178.556 32.2882V113.382H164.139Z" fill="white"/>
<path fill-rule="evenodd" clip-rule="evenodd" d="M108.425 92.6575C119.838 64.1247 133.354 34.6908 154.228 9.31152C138.76 9.31152 133.954 14.7178 126.746 19.5233L121.94 23.578C119.988 27.4825 118.336 31.387 116.534 35.2915C110.978 48.0562 106.473 61.2714 102.268 74.1862C99.5647 81.5447 95.51 86.8008 90.7044 90.2547C86.4996 93.2582 81.8442 94.6098 77.1889 94.6098C72.5335 94.6098 67.8781 93.108 63.6733 90.1046C59.0179 86.8008 54.9633 81.5447 52.5605 74.4866C48.9564 60.971 44.1508 47.906 38.4443 35.2915C36.6422 31.387 34.8401 27.4825 32.7377 23.7281L27.9321 19.6734C23.2768 16.5198 15.9183 9.46171 0.150146 9.46171C20.874 35.4416 36.6422 63.2236 46.5536 92.9579C58.1169 120.139 95.8103 121.04 108.575 92.8077" fill="white"/>
<path fill-rule="evenodd" clip-rule="evenodd" d="M98.6636 73.1342C102.868 60.0692 107.524 46.854 113.08 33.9391C118.186 22.2256 123.893 10.8125 130.801 0C124.343 0.750865 121.19 3.60414 117.736 6.6076C116.985 7.35847 116.084 7.95916 115.483 8.55986L87.8512 37.0927C84.247 40.847 80.6429 42.6491 77.0387 42.6491C73.4346 42.6491 69.8304 40.6969 66.5266 36.9425L39.1951 8.55986C38.5944 8.10934 38.2941 7.80899 37.8436 7.35847C34.9903 4.80553 30.7855 0.901038 23.5771 0C30.4851 10.9626 36.6422 22.2256 41.8982 33.7889C47.755 46.5536 52.5605 59.6187 56.1647 73.2844C58.4173 79.4415 61.8712 84.0969 65.9259 86.9501C69.3799 89.3529 73.2844 90.7045 77.1889 90.7045C81.0934 90.7045 84.9979 89.5031 88.4519 87.1003C92.6567 84.247 96.2609 79.5917 98.5135 73.1342" fill="#FBBA1E"/>
<path d="M541.524 189.368C541.524 190.119 541.524 190.57 541.974 190.72C542.275 190.87 542.875 191.02 543.776 191.02C544.677 191.02 544.077 191.02 544.077 191.02H544.227V193.123C544.227 193.123 543.927 193.123 543.626 193.123C543.026 193.123 542.575 193.123 542.425 193.123C541.374 193.123 540.473 192.973 540.022 192.522C539.421 192.072 539.271 191.471 539.271 190.57V178.105H537.019V176.153H539.271V171.648H541.524V176.153H544.227V178.105H541.524V189.368ZM522.302 187.716H524.554C524.554 187.867 524.554 188.017 524.554 188.167C524.554 189.068 524.855 189.819 525.305 190.269C525.756 190.72 526.507 191.02 527.558 191.02C528.609 191.02 529.21 190.72 529.66 190.269C530.111 189.819 530.411 189.068 530.411 188.317C530.411 186.966 529.36 186.065 527.407 185.314C525.305 184.563 524.104 183.962 523.503 183.211C522.902 182.46 522.602 181.559 522.602 180.208C522.602 178.856 523.052 177.655 523.954 176.754C524.855 176.003 526.056 175.553 527.558 175.553C529.059 175.553 530.411 176.003 531.162 176.754C531.913 177.505 532.363 178.706 532.363 180.208V180.508H530.111C530.111 179.457 529.81 178.706 529.36 178.256C528.909 177.805 528.309 177.505 527.407 177.505C526.506 177.505 525.756 177.655 525.305 178.105C524.855 178.556 524.554 179.157 524.554 180.058C524.554 180.959 524.554 180.809 524.704 181.109C524.704 181.409 525.005 181.71 525.155 181.86C525.605 182.16 526.356 182.611 527.708 183.061C528.459 183.211 528.909 183.512 529.21 183.662C530.411 184.112 531.162 184.713 531.612 185.314C532.063 186.065 532.363 186.966 532.363 188.017C532.363 189.669 531.913 191.02 530.862 191.921C529.961 192.822 528.459 193.273 526.807 193.273C525.155 193.273 523.954 192.822 523.053 191.921C522.151 191.02 521.851 189.819 521.851 188.167V187.867L522.302 187.716ZM505.783 198.078V195.976C506.083 195.976 506.233 196.126 506.534 196.276C506.834 196.276 506.984 196.276 507.284 196.276C508.035 196.276 508.486 195.976 508.936 195.525C509.387 195.075 509.687 194.174 510.138 192.822L505.182 176.003H507.735L511.339 189.519L515.093 176.003H517.496L512.39 193.423C511.789 195.375 511.189 196.577 510.588 197.328C509.837 198.078 508.936 198.379 507.585 198.379C506.233 198.379 507.134 198.379 506.834 198.379C506.534 198.379 506.233 198.379 505.933 198.229L505.783 198.078ZM487.311 185.764H489.714V186.515C489.714 188.017 490.014 189.218 490.765 189.969C491.516 190.72 492.567 191.17 493.919 191.17C495.271 191.17 496.172 190.87 496.772 190.119C497.523 189.368 497.823 188.317 497.823 186.966C497.823 185.614 497.673 185.164 497.223 184.563C496.772 183.962 495.871 183.361 494.369 182.911C494.069 182.911 493.468 182.611 492.868 182.31C491.066 181.71 490.014 181.109 489.564 180.809C488.963 180.208 488.513 179.607 488.212 178.856C487.912 178.105 487.762 177.204 487.762 176.153C487.762 174.201 488.363 172.699 489.414 171.648C490.465 170.597 491.967 169.996 493.919 169.996C495.871 169.996 497.223 170.447 498.124 171.498C499.175 172.549 499.625 173.901 499.625 175.703C499.625 177.505 499.625 175.703 499.625 176.003C499.625 176.003 499.625 176.153 499.625 176.303H497.373V176.003C497.373 174.802 497.073 173.75 496.472 173.15C495.871 172.399 494.97 172.099 493.919 172.099C492.868 172.099 491.817 172.399 491.216 173.15C490.615 173.75 490.165 174.651 490.165 175.853C490.165 177.054 490.465 177.655 490.915 178.256C491.366 178.856 492.417 179.457 493.919 179.908C494.069 179.908 494.369 180.058 494.67 180.208C497.073 181.109 498.424 181.71 498.875 182.16C499.475 182.611 499.776 183.361 500.076 183.962C500.376 184.713 500.527 185.614 500.527 186.665C500.527 188.768 499.926 190.42 498.724 191.621C497.523 192.822 495.871 193.423 493.769 193.423C491.666 193.423 490.165 192.822 489.113 191.621C488.062 190.42 487.462 188.768 487.462 186.515C487.462 184.263 487.462 186.365 487.462 186.215C487.462 186.065 487.462 185.914 487.462 185.914L487.311 185.764ZM468.39 192.822V176.153H470.492V178.856C470.792 177.955 471.393 177.054 471.994 176.604C472.745 176.003 473.495 175.703 474.396 175.703C475.297 175.703 474.847 175.703 474.997 175.703C474.997 175.703 475.298 175.703 475.448 175.703V178.256C475.448 178.256 475.147 178.256 474.997 178.105C474.997 178.105 474.697 178.105 474.547 178.105C473.345 178.105 472.444 178.556 471.693 179.307C470.942 180.058 470.642 181.259 470.642 182.611V192.822H468.39ZM459.529 192.822V176.153H461.932V192.822H459.529ZM459.529 173.45V170.447H461.932V173.45H459.529ZM454.123 192.822C453.823 192.822 453.522 192.822 453.372 192.822C453.222 192.822 452.922 192.822 452.772 192.822C452.171 192.822 451.57 192.672 451.27 192.222C450.819 191.771 450.669 191.17 450.669 190.42C450.369 191.321 449.768 191.921 449.167 192.372C448.417 192.822 447.666 193.123 446.765 193.123C445.864 193.123 444.662 192.672 443.911 191.921C443.311 191.17 442.86 189.969 442.86 188.467C442.86 186.966 443.161 185.914 443.761 185.164C444.362 184.413 445.713 183.662 447.816 183.061C449.468 182.46 450.369 181.86 450.369 181.109V179.607C450.369 178.856 450.219 178.406 449.768 178.105C449.318 177.805 448.717 177.655 447.816 177.655C446.915 177.655 446.314 177.805 446.014 178.256C445.563 178.706 445.413 179.307 445.413 180.208V180.508H443.16C443.16 178.856 443.611 177.505 444.362 176.754C445.113 176.003 446.314 175.553 448.116 175.553C449.918 175.553 450.819 175.853 451.57 176.604C452.321 177.355 452.621 178.406 452.621 180.058V189.819C452.621 190.269 452.621 190.57 452.922 190.72C453.072 190.87 453.372 191.02 453.673 191.02C453.973 191.02 453.823 191.02 453.973 191.02V192.822H454.123ZM450.369 183.812C450.068 184.263 449.167 184.713 447.966 185.164C447.966 185.164 447.816 185.164 447.666 185.164C446.614 185.614 445.864 185.914 445.563 186.515C445.263 186.966 445.113 187.716 445.113 188.618C445.113 189.519 445.263 190.119 445.713 190.57C446.014 191.02 446.614 191.321 447.215 191.321C448.116 191.321 449.017 191.02 449.468 190.269C450.068 189.519 450.369 188.618 450.369 187.266V183.962V183.812ZM426.041 198.379V176.003H428.293V178.105C428.444 177.355 428.894 176.754 429.495 176.303C430.095 175.853 430.846 175.553 431.747 175.553C433.549 175.553 434.901 176.303 435.652 177.805C436.553 179.307 437.003 181.409 437.003 184.263C437.003 187.116 436.553 189.519 435.802 190.87C435.051 192.222 433.7 192.973 431.898 192.973C430.095 192.973 430.396 192.822 429.795 192.372C429.194 192.072 428.744 191.471 428.293 190.72V198.078H425.891L426.041 198.379ZM428.293 184.413C428.293 186.665 428.594 188.317 429.044 189.519C429.645 190.57 430.396 191.17 431.597 191.17C432.799 191.17 433.399 190.57 433.85 189.519C434.3 188.467 434.601 186.815 434.601 184.413C434.601 182.01 434.3 180.358 433.85 179.457C433.399 178.406 432.648 177.955 431.447 177.955C430.246 177.955 429.495 178.406 428.894 179.457C428.444 180.508 428.143 182.16 428.143 184.563L428.293 184.413ZM417.631 187.116H419.884C419.884 189.068 419.433 190.57 418.532 191.621C417.631 192.672 416.43 193.123 414.778 193.123C413.126 193.123 411.624 192.372 410.723 191.02C409.822 189.669 409.372 187.416 409.372 184.563C409.372 181.71 409.822 179.157 410.723 177.655C411.624 176.153 412.976 175.553 414.778 175.553C416.58 175.553 417.781 176.153 418.682 177.355C419.583 178.556 419.884 180.508 419.884 182.911C419.884 185.314 419.884 183.662 419.884 183.812C419.884 183.962 419.884 184.263 419.884 184.413H411.925V185.164C411.925 187.266 412.225 188.768 412.675 189.669C413.126 190.57 413.877 191.17 414.928 191.17C415.979 191.17 416.43 190.87 416.88 190.119C417.331 189.368 417.631 188.467 417.631 187.116ZM411.925 182.611H417.631V182.16C417.631 180.658 417.481 179.457 417.03 178.706C416.58 177.955 415.979 177.505 415.078 177.505C414.177 177.505 413.276 177.955 412.826 178.706C412.375 179.607 412.075 180.809 412.075 182.611H411.925ZM390.3 192.822V170.447H396.607C398.859 170.447 400.662 170.897 401.713 171.798C402.764 172.699 403.365 174.201 403.365 176.153C403.365 178.105 403.064 178.856 402.313 179.757C401.563 180.658 400.662 181.259 399.16 181.71C400.361 181.71 401.262 182.16 402.013 182.911C402.614 183.662 403.064 184.713 403.214 186.215C403.214 186.815 403.214 187.566 403.365 188.467C403.515 190.87 403.965 192.372 404.566 192.973H401.412C401.112 192.522 400.962 191.17 400.812 189.368C400.812 188.467 400.812 187.716 400.812 187.116C400.812 185.614 400.211 184.563 399.61 183.962C399.01 183.361 397.808 183.061 396.006 183.061H392.853V192.973H390.45L390.3 192.822ZM392.702 180.658H395.706C397.508 180.658 398.709 180.358 399.61 179.607C400.361 179.006 400.812 177.955 400.812 176.454C400.812 174.952 400.511 174.051 399.76 173.45C399.01 172.849 397.808 172.549 396.306 172.549H392.853V180.658H392.702ZM374.231 187.116H376.484C376.484 189.068 376.033 190.57 375.132 191.621C374.231 192.672 373.03 193.123 371.378 193.123C369.726 193.123 368.224 192.372 367.323 191.02C366.422 189.669 365.972 187.416 365.972 184.563C365.972 181.71 366.422 179.157 367.323 177.655C368.224 176.153 369.576 175.553 371.378 175.553C373.18 175.553 374.381 176.153 375.282 177.355C376.183 178.556 376.484 180.508 376.484 182.911C376.484 185.314 376.484 183.662 376.484 183.812C376.484 183.962 376.484 184.263 376.484 184.413H368.525V185.164C368.525 187.266 368.825 188.768 369.275 189.669C369.726 190.57 370.477 191.17 371.528 191.17C372.579 191.17 373.03 190.87 373.48 190.119C373.931 189.368 374.231 188.467 374.231 187.116ZM368.525 182.611H374.231V182.16C374.231 180.658 374.081 179.457 373.63 178.706C373.18 177.955 372.579 177.505 371.678 177.505C370.777 177.505 369.876 177.955 369.426 178.706C368.975 179.607 368.675 180.809 368.675 182.611H368.525ZM349.603 194.324H351.855C351.855 195.075 352.156 195.526 352.606 195.826C353.057 196.126 353.657 196.276 354.558 196.276C355.459 196.276 356.511 195.976 356.961 195.225C357.412 194.474 357.712 193.273 357.712 191.621C357.712 189.969 357.712 191.471 357.712 191.321C357.712 191.171 357.712 191.02 357.712 190.87C357.412 191.621 356.961 192.222 356.21 192.522C355.61 192.973 354.859 193.123 353.958 193.123C352.306 193.123 350.954 192.372 350.203 190.87C349.302 189.368 349.002 187.116 349.002 183.962C349.002 180.809 349.453 179.157 350.354 177.805C351.255 176.454 352.606 175.703 354.258 175.703C355.91 175.703 355.91 175.853 356.511 176.303C357.111 176.754 357.562 177.355 357.862 177.955V176.003H360.115V191.921C360.115 194.024 359.664 195.525 358.613 196.727C357.562 197.778 356.21 198.379 354.408 198.379C352.606 198.379 351.855 197.928 350.954 197.328C350.053 196.577 349.603 195.676 349.603 194.474V194.324ZM351.555 184.413C351.555 186.815 351.855 188.467 352.306 189.368C352.756 190.42 353.657 190.87 354.709 190.87C355.76 190.87 356.661 190.42 357.111 189.368C357.562 188.317 357.862 186.665 357.862 184.112C357.862 181.559 357.562 180.208 357.111 179.157C356.661 178.105 355.76 177.655 354.558 177.655C353.357 177.655 352.756 178.105 352.156 179.307C351.705 180.358 351.405 182.16 351.405 184.563L351.555 184.413ZM342.995 192.822H340.742V190.72C340.592 191.471 340.142 192.072 339.391 192.522C338.79 192.973 337.889 193.123 337.138 193.123C335.486 193.123 334.135 192.372 333.234 190.72C332.333 189.218 331.882 186.815 331.882 183.812C331.882 180.809 332.333 179.157 333.234 177.805C334.135 176.303 335.486 175.703 336.988 175.703C338.49 175.703 338.64 175.853 339.391 176.303C339.992 176.754 340.442 177.204 340.592 177.805V170.447H342.995V192.822ZM340.742 184.263C340.742 181.86 340.442 180.058 339.992 179.157C339.541 178.256 338.64 177.655 337.589 177.655C336.538 177.655 335.637 178.105 335.186 179.157C334.736 180.208 334.435 181.86 334.435 183.962C334.435 186.065 334.736 188.167 335.186 189.218C335.637 190.269 336.538 190.87 337.589 190.87C338.64 190.87 339.541 190.42 340.142 189.368C340.592 188.317 340.893 186.665 340.893 184.263H340.742ZM314.913 192.822V170.447H326.026V172.699H317.466V179.908H325.575V182.16H317.466V190.42H326.176V192.822H315.063H314.913ZM291.936 184.413C291.936 186.966 292.237 188.618 292.687 189.669C293.138 190.72 294.039 191.17 295.24 191.17C296.441 191.17 297.343 190.72 297.793 189.669C298.244 188.618 298.544 186.815 298.544 184.413C298.544 182.01 298.244 180.208 297.793 179.157C297.343 178.105 296.441 177.655 295.24 177.655C294.039 177.655 293.138 178.105 292.687 179.157C292.237 180.208 291.936 181.86 291.936 184.413ZM289.534 184.413C289.534 181.409 289.984 179.157 291.035 177.805C291.936 176.303 293.438 175.703 295.39 175.703C297.343 175.703 298.844 176.454 299.895 177.805C300.797 179.307 301.397 181.409 301.397 184.563C301.397 187.717 300.947 189.819 300.046 191.17C299.145 192.522 297.643 193.273 295.54 193.273C293.438 193.273 292.086 192.522 291.035 191.17C290.134 189.819 289.684 187.566 289.684 184.563L289.534 184.413ZM279.472 192.822V172.699H273.765V170.447H287.431V172.699H282.025V192.822H279.472ZM259.349 187.116H261.601C261.601 189.068 261.151 190.57 260.25 191.621C259.349 192.672 258.147 193.123 256.495 193.123C254.844 193.123 253.342 192.372 252.441 191.02C251.54 189.669 251.089 187.416 251.089 184.563C251.089 181.71 251.54 179.157 252.441 177.655C253.342 176.153 254.693 175.553 256.495 175.553C258.298 175.553 259.499 176.153 260.4 177.355C261.301 178.556 261.601 180.508 261.601 182.911C261.601 185.314 261.601 183.662 261.601 183.812C261.601 183.962 261.601 184.263 261.601 184.413H253.642V185.164C253.642 187.266 253.943 188.768 254.393 189.669C254.844 190.57 255.594 191.17 256.646 191.17C257.697 191.17 258.147 190.87 258.598 190.119C259.048 189.368 259.349 188.467 259.349 187.116ZM253.642 182.611H259.349V182.16C259.349 180.658 259.199 179.457 258.748 178.706C258.298 177.955 257.697 177.505 256.796 177.505C255.895 177.505 254.994 177.955 254.543 178.706C254.093 179.607 253.792 180.809 253.792 182.611H253.642ZM234.57 194.324H236.823C236.823 195.075 237.123 195.526 237.574 195.826C238.024 196.126 238.625 196.276 239.526 196.276C240.427 196.276 241.478 195.976 241.929 195.225C242.379 194.474 242.68 193.273 242.68 191.621C242.68 189.969 242.68 191.471 242.68 191.321C242.68 191.171 242.68 191.02 242.68 190.87C242.379 191.621 241.929 192.222 241.178 192.522C240.577 192.973 239.826 193.123 238.925 193.123C237.273 193.123 235.922 192.372 235.171 190.87C234.27 189.368 233.97 187.116 233.97 183.962C233.97 180.809 234.42 179.157 235.321 177.805C236.222 176.454 237.574 175.703 239.226 175.703C240.878 175.703 240.877 175.853 241.478 176.303C242.079 176.754 242.529 177.355 242.83 177.955V176.003H245.082V191.921C245.082 194.024 244.632 195.525 243.581 196.727C242.529 197.778 241.178 198.379 239.376 198.379C237.574 198.379 236.823 197.928 235.922 197.328C235.021 196.577 234.57 195.676 234.57 194.474V194.324ZM236.522 184.413C236.522 186.815 236.823 188.467 237.273 189.368C237.724 190.42 238.625 190.87 239.676 190.87C240.727 190.87 241.628 190.42 242.079 189.368C242.529 188.317 242.83 186.665 242.83 184.112C242.83 181.559 242.529 180.208 242.079 179.157C241.628 178.105 240.727 177.655 239.526 177.655C238.325 177.655 237.724 178.105 237.123 179.307C236.673 180.358 236.372 182.16 236.372 184.563L236.522 184.413ZM227.963 192.822H225.71V190.72C225.56 191.471 225.109 192.072 224.358 192.522C223.758 192.973 222.857 193.123 222.106 193.123C220.454 193.123 219.102 192.372 218.201 190.72C217.3 189.218 216.85 186.815 216.85 183.812C216.85 180.809 217.3 179.157 218.201 177.805C219.102 176.303 220.454 175.703 221.956 175.703C223.457 175.703 223.608 175.853 224.358 176.303C224.959 176.754 225.41 177.204 225.56 177.805V170.447H227.963V192.822ZM225.86 184.263C225.86 181.86 225.56 180.058 225.109 179.157C224.659 178.256 223.758 177.655 222.707 177.655C221.655 177.655 220.754 178.105 220.304 179.157C219.853 180.208 219.553 181.86 219.553 183.962C219.553 186.065 219.853 188.167 220.304 189.218C220.754 190.269 221.655 190.87 222.707 190.87C223.758 190.87 224.659 190.42 225.259 189.368C225.71 188.317 226.01 186.665 226.01 184.263H225.86ZM200.03 192.822V170.447H211.143V172.699H202.583V179.908H210.693V182.16H202.583V190.42H211.293V192.822H200.181H200.03ZM180.808 192.822V176.153H182.911V178.856C183.211 177.955 183.812 177.054 184.412 176.604C185.163 176.003 185.914 175.703 186.815 175.703C187.716 175.703 187.266 175.703 187.416 175.703C187.416 175.703 187.716 175.703 187.866 175.703V178.256C187.866 178.256 187.566 178.256 187.416 178.105C187.416 178.105 187.116 178.105 186.965 178.105C185.764 178.105 184.863 178.556 184.112 179.307C183.511 180.058 183.061 181.259 183.061 182.611V192.822H180.808ZM172.248 187.116H174.501C174.501 189.068 174.051 190.57 173.149 191.621C172.248 192.672 171.047 193.123 169.395 193.123C167.743 193.123 166.242 192.372 165.34 191.02C164.439 189.669 163.989 187.416 163.989 184.563C163.989 181.71 164.439 179.157 165.34 177.655C166.242 176.153 167.593 175.553 169.395 175.553C171.197 175.553 172.399 176.153 173.3 177.355C174.201 178.556 174.501 180.508 174.501 182.911C174.501 185.314 174.501 183.662 174.501 183.812C174.501 183.962 174.501 184.263 174.501 184.413H166.542V185.164C166.542 187.266 166.842 188.768 167.293 189.669C167.743 190.57 168.494 191.17 169.545 191.17C170.596 191.17 171.047 190.87 171.498 190.119C171.948 189.368 172.248 188.467 172.248 187.116ZM166.542 182.611H172.248V182.16C172.248 180.658 172.098 179.457 171.648 178.706C171.197 177.955 170.597 177.505 169.695 177.505C168.794 177.505 167.893 177.955 167.443 178.706C166.992 179.607 166.692 180.809 166.692 182.611H166.542ZM156.931 189.368C156.931 190.119 156.931 190.57 157.381 190.72C157.682 190.87 158.282 191.02 159.183 191.02C160.084 191.02 159.484 191.02 159.484 191.02H159.634V193.123C159.634 193.123 159.334 193.123 159.033 193.123C158.432 193.123 157.982 193.123 157.832 193.123C156.781 193.123 155.88 192.973 155.429 192.522C154.828 192.072 154.678 191.471 154.678 190.57V178.105H152.426V176.153H154.678V171.648H156.931V176.153H159.634V178.105H156.931V189.368ZM145.818 187.116H148.071C148.071 189.068 147.62 190.57 146.719 191.621C145.818 192.672 144.617 193.123 142.965 193.123C141.313 193.123 139.811 192.372 138.91 191.02C138.009 189.669 137.558 187.416 137.558 184.563C137.558 181.71 138.009 179.157 138.91 177.655C139.811 176.153 141.163 175.553 142.965 175.553C144.767 175.553 145.968 176.153 146.869 177.355C147.77 178.556 148.071 180.508 148.071 182.911C148.071 185.314 148.071 183.662 148.071 183.812C148.071 183.962 148.071 184.263 148.071 184.413H140.111V185.164C140.111 187.266 140.412 188.768 140.862 189.669C141.313 190.57 142.064 191.17 143.115 191.17C144.166 191.17 144.617 190.87 145.067 190.119C145.518 189.368 145.818 188.467 145.818 187.116ZM140.111 182.611H145.818V182.16C145.818 180.658 145.668 179.457 145.217 178.706C144.767 177.955 144.166 177.505 143.265 177.505C142.364 177.505 141.463 177.955 141.012 178.706C140.562 179.607 140.262 180.809 140.262 182.611H140.111ZM121.19 192.822V170.447H123.592V177.955C124.043 177.204 124.644 176.604 125.244 176.303C125.845 176.003 126.746 175.703 127.647 175.703C128.548 175.703 129.9 176.003 130.65 176.754C131.401 177.355 131.702 178.406 131.702 179.607V192.822H129.299V180.658C129.299 179.607 129.149 179.006 128.698 178.556C128.398 178.105 127.797 177.955 126.896 177.955C125.995 177.955 125.094 178.256 124.343 179.006C123.743 179.607 123.442 180.508 123.442 181.71V192.973H121.039L121.19 192.822ZM113.531 189.368C113.531 190.119 113.531 190.57 113.981 190.72C114.282 190.87 114.882 191.02 115.783 191.02C116.684 191.02 116.084 191.02 116.084 191.02H116.234V193.123C116.234 193.123 115.934 193.123 115.633 193.123C115.033 193.123 114.582 193.123 114.432 193.123C113.381 193.123 112.48 192.973 112.029 192.522C111.428 192.072 111.278 191.471 111.278 190.57V178.105H109.026V176.153H111.278V171.648H113.531V176.153H116.234V178.105H113.531V189.368ZM105.421 192.822C105.121 192.822 104.821 192.822 104.671 192.822C104.52 192.822 104.22 192.822 104.07 192.822C103.469 192.822 102.869 192.672 102.568 192.222C102.118 191.771 101.967 191.17 101.967 190.42C101.667 191.321 101.066 191.921 100.466 192.372C99.7149 192.822 98.964 193.123 98.063 193.123C97.1619 193.123 95.9605 192.672 95.2097 191.921C94.609 191.17 94.1585 189.969 94.1585 188.467C94.1585 186.966 94.4588 185.914 95.0595 185.164C95.6602 184.413 97.0117 183.662 99.1142 183.061C100.766 182.46 101.667 181.86 101.667 181.109V179.607C101.667 178.856 101.517 178.406 101.066 178.105C100.616 177.805 100.015 177.655 99.1142 177.655C98.2131 177.655 97.6125 177.805 97.3121 178.256C96.8616 178.706 96.7114 179.307 96.7114 180.208V180.508H94.4588C94.4588 178.856 94.9093 177.505 95.6602 176.754C96.4111 176.003 97.6125 175.553 99.4145 175.553C101.217 175.553 102.118 175.853 102.868 176.604C103.619 177.355 103.92 178.406 103.92 180.058V189.819C103.92 190.269 103.92 190.57 104.22 190.72C104.37 190.87 104.671 191.02 104.971 191.02C105.271 191.02 105.121 191.02 105.271 191.02V192.822H105.421ZM101.817 183.812C101.517 184.263 100.616 184.713 99.4145 185.164C99.4145 185.164 99.2643 185.164 99.1142 185.164C98.063 185.614 97.3121 185.914 97.0118 186.515C96.7114 186.966 96.5613 187.716 96.5613 188.618C96.5613 189.519 96.7114 190.119 97.1619 190.57C97.4623 191.02 98.063 191.321 98.6637 191.321C99.5647 191.321 100.466 191.02 100.916 190.269C101.517 189.519 101.817 188.618 101.817 187.266V183.962V183.812ZM85.899 186.966H88.1516C88.1516 188.918 87.701 190.57 86.8 191.621C85.899 192.672 84.5474 193.273 82.8955 193.273C81.2436 193.273 79.5917 192.522 78.8408 191.02C77.9398 189.519 77.4893 187.266 77.4893 184.263C77.4893 181.259 77.9398 179.157 78.8408 177.805C79.7419 176.303 81.2436 175.703 83.0457 175.703C84.8478 175.703 85.899 176.153 86.8 177.204C87.701 178.105 88.1516 179.457 88.1516 181.109V181.409H85.899C85.899 180.208 85.5986 179.307 85.1481 178.706C84.6976 178.105 84.0969 177.805 83.1958 177.805C82.2948 177.805 81.2436 178.256 80.7931 179.307C80.3426 180.358 80.0422 182.01 80.0422 184.413C80.0422 186.815 80.3426 188.618 80.7931 189.669C81.2436 190.72 82.1446 191.17 83.1958 191.17C84.247 191.17 84.6976 190.87 85.1481 190.119C85.5986 189.368 85.899 188.317 85.899 186.966ZM61.2706 187.716H63.5232C63.5232 187.867 63.5232 188.017 63.5232 188.167C63.5232 189.068 63.8235 189.819 64.2741 190.269C64.7246 190.72 65.4754 191.02 66.5267 191.02C67.5779 191.02 68.1786 190.72 68.6291 190.269C69.0796 189.819 69.3799 189.068 69.3799 188.317C69.3799 186.966 68.3287 186.065 66.3765 185.314C64.2741 184.563 63.0727 183.962 62.472 183.211C61.8713 182.46 61.5709 181.559 61.5709 180.208C61.5709 178.856 62.0214 177.655 62.9225 176.754C63.8235 176.003 65.0249 175.553 66.5267 175.553C68.0284 175.553 69.3799 176.003 70.1308 176.754C70.8817 177.505 71.3322 178.706 71.3322 180.208V180.508H69.0796C69.0796 179.457 68.7792 178.706 68.3287 178.256C67.8782 177.805 67.2775 177.505 66.3765 177.505C65.4754 177.505 64.7246 177.655 64.2741 178.105C63.8235 178.556 63.5232 179.157 63.5232 180.058C63.5232 180.959 63.5232 180.809 63.6733 181.109C63.6733 181.409 63.9737 181.71 64.1239 181.86C64.5744 182.16 65.3252 182.611 66.6768 183.061C67.4277 183.211 67.8782 183.512 68.1785 183.662C69.3799 184.112 70.1308 184.713 70.5813 185.314C71.0318 186.065 71.3322 186.966 71.3322 188.017C71.3322 189.669 70.8816 191.02 69.8304 191.921C68.9294 192.822 67.4277 193.273 65.7758 193.273C64.1239 193.273 62.9225 192.822 62.0215 191.921C61.1204 191.02 60.8201 189.819 60.8201 188.167V187.867L61.2706 187.716ZM44.7516 192.822V176.153H47.0042V178.256C47.4547 177.505 47.9052 176.904 48.6561 176.454C49.4069 176.003 50.1578 175.853 51.209 175.853C52.7107 175.853 53.7619 176.153 54.3626 176.904C54.9633 177.655 55.2637 178.856 55.2637 180.809V192.973H52.8609V180.658C52.8609 179.757 52.7107 179.006 52.2602 178.556C51.8097 178.105 51.209 177.955 50.4581 177.955C49.7073 177.955 48.6561 178.256 47.9052 179.006C47.3045 179.607 47.0042 180.508 47.0042 181.71V192.973H44.6014L44.7516 192.822ZM39.1952 192.822C38.8948 192.822 38.5945 192.822 38.4443 192.822C38.2941 192.822 37.9938 192.822 37.8436 192.822C37.2429 192.822 36.6422 192.672 36.3419 192.222C35.8914 191.771 35.7412 191.17 35.7412 190.42C35.4408 191.321 34.8401 191.921 34.2394 192.372C33.4886 192.822 32.7377 193.123 31.8367 193.123C30.9357 193.123 29.7343 192.672 28.9834 191.921C28.3827 191.17 27.9322 189.969 27.9322 188.467C27.9322 186.966 28.2325 185.914 28.8332 185.164C29.4339 184.413 30.7855 183.662 32.8879 183.061C34.5398 182.46 35.4408 181.86 35.4408 181.109V179.607C35.4408 178.856 35.2907 178.406 34.8401 178.105C34.3896 177.805 33.7889 177.655 32.8879 177.655C31.9869 177.655 31.3862 177.805 31.0858 178.256C30.6353 178.706 30.4851 179.307 30.4851 180.208V180.508H28.2325C28.2325 178.856 28.6831 177.505 29.4339 176.754C30.1848 176.003 31.3862 175.553 33.1882 175.553C34.9903 175.553 35.8914 175.853 36.6422 176.604C37.3931 177.355 37.6934 178.406 37.6934 180.058V189.819C37.6934 190.269 37.6934 190.57 37.9938 190.72C38.1439 190.87 38.4443 191.02 38.7446 191.02C39.045 191.02 38.8948 191.02 39.045 191.02V192.822H39.1952ZM35.591 183.812C35.2907 184.263 34.3896 184.713 33.1882 185.164C33.1882 185.164 33.0381 185.164 32.8879 185.164C31.8367 185.614 31.0858 185.914 30.7855 186.515C30.4851 186.966 30.335 187.716 30.335 188.618C30.335 189.519 30.4851 190.119 30.9356 190.57C31.236 191.02 31.8367 191.321 32.4374 191.321C33.3384 191.321 34.2394 191.02 34.69 190.269C35.2907 189.519 35.591 188.618 35.591 187.266V183.962V183.812ZM16.6692 192.822V176.153H18.7716V178.856C19.072 177.955 19.6727 177.054 20.2734 176.604C21.0242 176.003 21.7751 175.703 22.6761 175.703C23.5772 175.703 23.1266 175.703 23.2768 175.703C23.2768 175.703 23.5772 175.703 23.7273 175.703V178.256C23.7273 178.256 23.427 178.256 23.2768 178.105C23.2768 178.105 22.9765 178.105 22.8263 178.105C21.6249 178.105 20.7239 178.556 19.973 179.307C19.3723 180.058 18.9218 181.259 18.9218 182.611V192.822H16.6692ZM5.70658 192.822V172.699H0V170.447H13.6658V172.699H8.25951V192.822H5.70658Z" fill="white"/>
<path d="M565.401 192.823V176.153H567.504V178.106C567.954 177.355 568.555 176.754 569.306 176.304C570.057 175.853 570.958 175.703 571.859 175.703C572.76 175.703 573.511 175.853 574.111 176.304C574.712 176.754 575.163 177.355 575.313 178.106C575.763 177.355 576.364 176.754 577.115 176.304C577.866 175.853 578.617 175.703 579.668 175.703C580.719 175.703 582.071 176.003 582.821 176.754C583.572 177.505 583.873 178.406 583.873 179.758V192.672H581.47V181.109C581.47 179.758 581.32 178.857 581.019 178.406C580.719 177.955 580.118 177.655 579.217 177.655C578.316 177.655 577.415 177.956 576.815 178.556C576.214 179.157 575.914 180.058 575.914 180.959V192.522H573.511V180.959C573.511 179.758 573.361 178.857 572.91 178.406C572.61 177.955 571.859 177.655 571.108 177.655C570.357 177.655 569.306 177.956 568.555 178.556C567.954 179.157 567.654 179.908 567.654 180.959V192.672H565.401V192.823ZM556.842 187.116H559.094C559.094 189.068 558.644 190.57 557.743 191.621C556.842 192.672 555.64 193.123 553.988 193.123C552.336 193.123 550.835 192.372 549.934 191.021C549.032 189.669 548.582 187.416 548.582 184.563C548.582 181.71 549.032 179.157 549.934 177.655C550.835 176.153 552.186 175.553 553.988 175.553C555.79 175.553 556.992 176.153 557.893 177.355C558.794 178.556 559.094 180.508 559.094 182.911C559.094 185.314 559.094 183.662 559.094 183.812C559.094 183.962 559.094 184.263 559.094 184.413H551.135V185.164C551.135 187.266 551.435 188.768 551.886 189.669C552.336 190.57 553.087 191.171 554.138 191.171C555.19 191.171 555.64 190.87 556.091 190.119C556.541 189.369 556.842 188.468 556.842 187.116ZM551.135 182.611H556.842V182.16C556.842 180.659 556.691 179.457 556.241 178.706C555.79 177.955 555.19 177.505 554.289 177.505C553.388 177.505 552.487 177.955 552.036 178.706C551.585 179.607 551.285 180.809 551.285 182.611H551.135Z" fill="white"/>
<path d="M418.081 237.724H585.524M1.65186 237.724H174.501" stroke="white" stroke-width="2" stroke-miterlimit="22.9"/>
<mask id="path-8-inside-1_736_630" fill="white">
<path d="M376.484 236.374H387.296C387.296 234.422 386.695 233.07 385.794 231.869C384.893 230.817 383.542 230.217 382.04 230.217C380.538 230.217 379.187 230.817 378.136 231.869C377.084 232.92 376.634 234.422 376.484 236.374ZM376.484 238.026C376.484 240.278 376.934 241.93 377.985 243.132C379.037 244.333 380.388 244.934 382.04 244.934C383.692 244.934 384.443 244.633 385.344 243.883C386.245 243.132 386.846 242.231 386.996 240.879H388.948C388.798 242.681 388.047 244.033 386.695 245.084C385.344 246.135 383.842 246.586 381.89 246.586C379.938 246.586 377.685 245.835 376.334 244.183C374.982 242.531 374.381 240.429 374.381 237.575C374.381 234.722 374.982 232.469 376.334 230.817C377.685 229.166 379.487 228.415 381.89 228.415C384.293 228.415 385.945 229.166 387.296 230.667C388.648 232.169 389.248 234.271 389.248 237.125V237.725H376.484V238.026ZM367.473 246.135V230.667H364.92V229.015H367.473V225.862C367.473 224.51 367.774 223.609 368.374 223.008C368.975 222.408 370.026 222.107 371.528 222.107C373.03 222.107 371.828 222.107 371.979 222.107C372.129 222.107 372.279 222.107 372.579 222.107V223.909C372.579 223.909 372.579 223.909 372.429 223.909C371.979 223.909 371.678 223.909 371.528 223.909C370.777 223.909 370.327 224.06 370.026 224.36C369.726 224.66 369.576 225.261 369.576 226.012V229.015H372.729V230.667H369.576V246.135H367.624H367.473ZM359.965 246.135V229.015H361.917V246.135H359.965ZM359.965 225.411V222.408H361.917V225.411H359.965ZM342.995 246.135V222.408H345.248V244.183H357.412V246.135H342.995ZM329.329 229.015V245.234C329.329 247.787 328.579 249.889 327.227 251.091C325.875 252.442 323.773 253.043 321.22 253.043C318.667 253.043 317.616 252.593 316.415 251.691C315.213 250.79 314.462 249.589 314.462 248.087H316.565C316.565 249.139 317.165 249.889 317.916 250.49C318.667 251.091 319.868 251.391 321.37 251.391C323.473 251.391 324.974 250.941 326.026 249.889C327.077 248.838 327.527 247.336 327.527 245.384V243.282C326.776 244.483 326.026 245.234 324.974 245.835C323.923 246.435 322.872 246.736 321.52 246.736C319.118 246.736 317.316 245.985 315.964 244.333C314.612 242.681 313.862 240.579 313.862 237.725C313.862 234.872 314.612 232.77 315.964 231.118C317.316 229.466 319.118 228.715 321.52 228.715C323.923 228.715 324.073 229.015 324.974 229.616C326.026 230.217 326.776 230.968 327.527 232.169V229.166H329.48L329.329 229.015ZM315.964 237.575C315.964 239.828 316.414 241.63 317.466 242.981C318.517 244.333 319.868 244.934 321.671 244.934C323.473 244.934 324.974 244.333 326.026 242.981C327.077 241.63 327.527 239.978 327.527 237.575C327.527 235.172 327.077 233.521 326.026 232.169C324.974 230.968 323.623 230.217 321.671 230.217C319.718 230.217 318.367 230.817 317.466 232.169C316.414 233.37 315.964 235.172 315.964 237.575ZM296.892 246.135V229.015H298.844V231.718C299.445 230.667 300.346 229.916 301.247 229.316C302.148 228.715 303.349 228.565 304.551 228.565C305.752 228.565 306.803 228.715 307.704 229.166C308.605 229.616 309.206 230.217 309.807 230.968C310.107 231.418 310.257 231.869 310.408 232.469C310.408 233.07 310.558 233.971 310.558 235.323V246.285H308.455V235.623C308.455 233.671 308.155 232.319 307.554 231.568C306.954 230.817 305.902 230.517 304.25 230.517C302.599 230.517 301.397 230.968 300.496 232.019C299.595 233.07 299.145 234.422 299.145 236.224V246.285H297.192L296.892 246.135ZM290.284 246.135V229.015H292.237V246.135H290.284ZM290.284 225.411V222.408H292.237V225.411H290.284ZM279.922 246.135V229.015H281.875V232.019C282.325 230.817 283.076 230.067 283.977 229.466C284.878 228.865 285.929 228.565 287.281 228.565H287.581V230.667H287.281C285.629 230.667 284.277 231.118 283.376 232.169C282.475 233.22 282.025 234.722 282.025 236.674V246.135H279.922ZM260.55 237.575C260.55 234.722 261.301 232.469 262.653 230.968C264.004 229.466 265.956 228.565 268.509 228.565C271.062 228.565 273.015 229.316 274.366 230.968C275.718 232.469 276.468 234.722 276.468 237.575C276.468 240.429 275.718 242.681 274.366 244.183C273.015 245.685 271.062 246.586 268.509 246.586C265.956 246.586 264.154 245.835 262.653 244.183C261.301 242.681 260.55 240.429 260.55 237.575ZM262.653 237.575C262.653 239.828 263.103 241.63 264.154 242.981C265.206 244.183 266.557 244.934 268.509 244.934C270.462 244.934 271.813 244.333 272.864 242.981C273.916 241.78 274.366 239.978 274.366 237.575C274.366 235.172 273.916 233.521 272.864 232.169C271.813 230.968 270.462 230.217 268.509 230.217C266.557 230.217 265.206 230.817 264.154 232.169C263.103 233.37 262.653 235.172 262.653 237.575ZM255.144 224.06V229.015H258.298V230.667H255.144V243.132C255.144 243.883 255.144 244.333 255.444 244.633C255.594 244.934 255.895 244.934 256.496 244.934C257.096 244.934 256.946 244.934 257.246 244.934C257.547 244.934 257.847 244.934 258.448 244.633V246.285C257.997 246.285 257.547 246.435 257.096 246.586C256.646 246.586 256.345 246.586 255.895 246.586C254.844 246.586 254.243 246.285 253.792 245.835C253.342 245.384 253.192 244.483 253.192 243.132V230.667H250.789V229.015H253.192V224.06H255.144ZM235.471 240.879H237.424C237.424 242.08 237.874 242.981 238.775 243.732C239.676 244.483 240.727 244.784 242.079 244.784C243.43 244.784 244.632 244.483 245.533 243.883C246.284 243.282 246.734 242.531 246.734 241.63C246.734 240.278 245.233 239.227 242.229 238.476C239.826 237.876 238.174 237.275 237.273 236.524C236.372 235.773 236.072 234.872 236.072 233.521C236.072 232.169 236.673 230.817 237.724 229.916C238.775 229.015 240.277 228.565 241.929 228.565C243.581 228.565 245.383 229.015 246.584 230.067C247.785 230.968 248.386 232.319 248.536 234.121H246.584C246.584 232.92 246.134 232.019 245.233 231.418C244.482 230.817 243.43 230.367 242.079 230.367C240.727 230.367 239.976 230.667 239.226 231.118C238.475 231.718 238.174 232.319 238.174 233.22C238.174 234.722 239.676 235.923 242.83 236.524C243.28 236.524 243.581 236.674 243.731 236.824C245.683 237.275 247.035 237.876 247.785 238.626C248.536 239.377 248.987 240.278 248.987 241.63C248.987 242.981 248.386 244.333 247.185 245.234C245.983 246.135 244.482 246.586 242.379 246.586C240.277 246.586 238.775 245.985 237.574 244.934C236.372 243.882 235.772 242.531 235.621 240.729L235.471 240.879ZM220.003 236.374H230.816C230.816 234.422 230.215 233.07 229.314 231.869C228.413 230.817 227.062 230.217 225.56 230.217C224.058 230.217 222.707 230.817 221.655 231.869C220.604 232.92 220.154 234.422 220.003 236.374ZM219.853 238.026C219.853 240.278 220.304 241.93 221.355 243.132C222.406 244.333 223.758 244.934 225.41 244.934C227.062 244.934 227.812 244.633 228.714 243.883C229.615 243.132 230.215 242.231 230.365 240.879H232.318C232.167 242.681 231.417 244.033 230.065 245.084C228.714 246.135 227.212 246.586 225.26 246.586C223.307 246.586 221.055 245.835 219.703 244.183C218.352 242.531 217.751 240.429 217.751 237.575C217.751 234.722 218.352 232.469 219.703 230.817C221.055 229.166 222.857 228.415 225.26 228.415C227.662 228.415 229.314 229.166 230.666 230.667C232.017 232.169 232.618 234.271 232.618 237.125V237.725H219.853V238.026ZM197.778 246.135V222.408H205.737C207.539 222.408 208.891 222.408 209.792 222.708C210.543 222.708 211.293 223.159 211.894 223.459C212.795 223.909 213.546 224.66 213.997 225.712C214.447 226.613 214.747 227.664 214.747 228.865C214.747 230.067 214.447 231.568 213.696 232.62C213.096 233.671 212.044 234.271 210.843 234.722C211.744 235.022 212.495 235.473 212.945 236.224C213.396 236.824 213.696 238.176 213.846 240.278L214.147 243.883C214.147 244.483 214.147 244.934 214.447 245.234C214.447 245.534 214.747 245.835 214.898 245.985V246.285H212.495C212.495 245.985 212.194 245.685 212.194 245.384C212.194 244.934 212.194 244.483 212.044 243.883L211.744 240.729C211.594 238.626 211.143 237.125 210.543 236.524C209.942 235.923 208.74 235.623 206.788 235.623H199.88V246.285H197.628L197.778 246.135ZM200.03 233.671H206.338C208.59 233.671 210.092 233.37 211.143 232.469C212.044 231.718 212.645 230.517 212.645 228.865C212.645 227.213 212.495 227.363 212.194 226.763C211.894 226.162 211.444 225.712 210.843 225.261C210.392 224.961 209.942 224.811 209.191 224.66C208.59 224.66 207.539 224.51 206.188 224.51H200.03V233.671Z"/>
</mask>
<path d="M376.484 236.374H387.296C387.296 234.422 386.695 233.07 385.794 231.869C384.893 230.817 383.542 230.217 382.04 230.217C380.538 230.217 379.187 230.817 378.136 231.869C377.084 232.92 376.634 234.422 376.484 236.374ZM376.484 238.026C376.484 240.278 376.934 241.93 377.985 243.132C379.037 244.333 380.388 244.934 382.04 244.934C383.692 244.934 384.443 244.633 385.344 243.883C386.245 243.132 386.846 242.231 386.996 240.879H388.948C388.798 242.681 388.047 244.033 386.695 245.084C385.344 246.135 383.842 246.586 381.89 246.586C379.938 246.586 377.685 245.835 376.334 244.183C374.982 242.531 374.381 240.429 374.381 237.575C374.381 234.722 374.982 232.469 376.334 230.817C377.685 229.166 379.487 228.415 381.89 228.415C384.293 228.415 385.945 229.166 387.296 230.667C388.648 232.169 389.248 234.271 389.248 237.125V237.725H376.484V238.026ZM367.473 246.135V230.667H364.92V229.015H367.473V225.862C367.473 224.51 367.774 223.609 368.374 223.008C368.975 222.408 370.026 222.107 371.528 222.107C373.03 222.107 371.828 222.107 371.979 222.107C372.129 222.107 372.279 222.107 372.579 222.107V223.909C372.579 223.909 372.579 223.909 372.429 223.909C371.979 223.909 371.678 223.909 371.528 223.909C370.777 223.909 370.327 224.06 370.026 224.36C369.726 224.66 369.576 225.261 369.576 226.012V229.015H372.729V230.667H369.576V246.135H367.624H367.473ZM359.965 246.135V229.015H361.917V246.135H359.965ZM359.965 225.411V222.408H361.917V225.411H359.965ZM342.995 246.135V222.408H345.248V244.183H357.412V246.135H342.995ZM329.329 229.015V245.234C329.329 247.787 328.579 249.889 327.227 251.091C325.875 252.442 323.773 253.043 321.22 253.043C318.667 253.043 317.616 252.593 316.415 251.691C315.213 250.79 314.462 249.589 314.462 248.087H316.565C316.565 249.139 317.165 249.889 317.916 250.49C318.667 251.091 319.868 251.391 321.37 251.391C323.473 251.391 324.974 250.941 326.026 249.889C327.077 248.838 327.527 247.336 327.527 245.384V243.282C326.776 244.483 326.026 245.234 324.974 245.835C323.923 246.435 322.872 246.736 321.52 246.736C319.118 246.736 317.316 245.985 315.964 244.333C314.612 242.681 313.862 240.579 313.862 237.725C313.862 234.872 314.612 232.77 315.964 231.118C317.316 229.466 319.118 228.715 321.52 228.715C323.923 228.715 324.073 229.015 324.974 229.616C326.026 230.217 326.776 230.968 327.527 232.169V229.166H329.48L329.329 229.015ZM315.964 237.575C315.964 239.828 316.414 241.63 317.466 242.981C318.517 244.333 319.868 244.934 321.671 244.934C323.473 244.934 324.974 244.333 326.026 242.981C327.077 241.63 327.527 239.978 327.527 237.575C327.527 235.172 327.077 233.521 326.026 232.169C324.974 230.968 323.623 230.217 321.671 230.217C319.718 230.217 318.367 230.817 317.466 232.169C316.414 233.37 315.964 235.172 315.964 237.575ZM296.892 246.135V229.015H298.844V231.718C299.445 230.667 300.346 229.916 301.247 229.316C302.148 228.715 303.349 228.565 304.551 228.565C305.752 228.565 306.803 228.715 307.704 229.166C308.605 229.616 309.206 230.217 309.807 230.968C310.107 231.418 310.257 231.869 310.408 232.469C310.408 233.07 310.558 233.971 310.558 235.323V246.285H308.455V235.623C308.455 233.671 308.155 232.319 307.554 231.568C306.954 230.817 305.902 230.517 304.25 230.517C302.599 230.517 301.397 230.968 300.496 232.019C299.595 233.07 299.145 234.422 299.145 236.224V246.285H297.192L296.892 246.135ZM290.284 246.135V229.015H292.237V246.135H290.284ZM290.284 225.411V222.408H292.237V225.411H290.284ZM279.922 246.135V229.015H281.875V232.019C282.325 230.817 283.076 230.067 283.977 229.466C284.878 228.865 285.929 228.565 287.281 228.565H287.581V230.667H287.281C285.629 230.667 284.277 231.118 283.376 232.169C282.475 233.22 282.025 234.722 282.025 236.674V246.135H279.922ZM260.55 237.575C260.55 234.722 261.301 232.469 262.653 230.968C264.004 229.466 265.956 228.565 268.509 228.565C271.062 228.565 273.015 229.316 274.366 230.968C275.718 232.469 276.468 234.722 276.468 237.575C276.468 240.429 275.718 242.681 274.366 244.183C273.015 245.685 271.062 246.586 268.509 246.586C265.956 246.586 264.154 245.835 262.653 244.183C261.301 242.681 260.55 240.429 260.55 237.575ZM262.653 237.575C262.653 239.828 263.103 241.63 264.154 242.981C265.206 244.183 266.557 244.934 268.509 244.934C270.462 244.934 271.813 244.333 272.864 242.981C273.916 241.78 274.366 239.978 274.366 237.575C274.366 235.172 273.916 233.521 272.864 232.169C271.813 230.968 270.462 230.217 268.509 230.217C266.557 230.217 265.206 230.817 264.154 232.169C263.103 233.37 262.653 235.172 262.653 237.575ZM255.144 224.06V229.015H258.298V230.667H255.144V243.132C255.144 243.883 255.144 244.333 255.444 244.633C255.594 244.934 255.895 244.934 256.496 244.934C257.096 244.934 256.946 244.934 257.246 244.934C257.547 244.934 257.847 244.934 258.448 244.633V246.285C257.997 246.285 257.547 246.435 257.096 246.586C256.646 246.586 256.345 246.586 255.895 246.586C254.844 246.586 254.243 246.285 253.792 245.835C253.342 245.384 253.192 244.483 253.192 243.132V230.667H250.789V229.015H253.192V224.06H255.144ZM235.471 240.879H237.424C237.424 242.08 237.874 242.981 238.775 243.732C239.676 244.483 240.727 244.784 242.079 244.784C243.43 244.784 244.632 244.483 245.533 243.883C246.284 243.282 246.734 242.531 246.734 241.63C246.734 240.278 245.233 239.227 242.229 238.476C239.826 237.876 238.174 237.275 237.273 236.524C236.372 235.773 236.072 234.872 236.072 233.521C236.072 232.169 236.673 230.817 237.724 229.916C238.775 229.015 240.277 228.565 241.929 228.565C243.581 228.565 245.383 229.015 246.584 230.067C247.785 230.968 248.386 232.319 248.536 234.121H246.584C246.584 232.92 246.134 232.019 245.233 231.418C244.482 230.817 243.43 230.367 242.079 230.367C240.727 230.367 239.976 230.667 239.226 231.118C238.475 231.718 238.174 232.319 238.174 233.22C238.174 234.722 239.676 235.923 242.83 236.524C243.28 236.524 243.581 236.674 243.731 236.824C245.683 237.275 247.035 237.876 247.785 238.626C248.536 239.377 248.987 240.278 248.987 241.63C248.987 242.981 248.386 244.333 247.185 245.234C245.983 246.135 244.482 246.586 242.379 246.586C240.277 246.586 238.775 245.985 237.574 244.934C236.372 243.882 235.772 242.531 235.621 240.729L235.471 240.879ZM220.003 236.374H230.816C230.816 234.422 230.215 233.07 229.314 231.869C228.413 230.817 227.062 230.217 225.56 230.217C224.058 230.217 222.707 230.817 221.655 231.869C220.604 232.92 220.154 234.422 220.003 236.374ZM219.853 238.026C219.853 240.278 220.304 241.93 221.355 243.132C222.406 244.333 223.758 244.934 225.41 244.934C227.062 244.934 227.812 244.633 228.714 243.883C229.615 243.132 230.215 242.231 230.365 240.879H232.318C232.167 242.681 231.417 244.033 230.065 245.084C228.714 246.135 227.212 246.586 225.26 246.586C223.307 246.586 221.055 245.835 219.703 244.183C218.352 242.531 217.751 240.429 217.751 237.575C217.751 234.722 218.352 232.469 219.703 230.817C221.055 229.166 222.857 228.415 225.26 228.415C227.662 228.415 229.314 229.166 230.666 230.667C232.017 232.169 232.618 234.271 232.618 237.125V237.725H219.853V238.026ZM197.778 246.135V222.408H205.737C207.539 222.408 208.891 222.408 209.792 222.708C210.543 222.708 211.293 223.159 211.894 223.459C212.795 223.909 213.546 224.66 213.997 225.712C214.447 226.613 214.747 227.664 214.747 228.865C214.747 230.067 214.447 231.568 213.696 232.62C213.096 233.671 212.044 234.271 210.843 234.722C211.744 235.022 212.495 235.473 212.945 236.224C213.396 236.824 213.696 238.176 213.846 240.278L214.147 243.883C214.147 244.483 214.147 244.934 214.447 245.234C214.447 245.534 214.747 245.835 214.898 245.985V246.285H212.495C212.495 245.985 212.194 245.685 212.194 245.384C212.194 244.934 212.194 244.483 212.044 243.883L211.744 240.729C211.594 238.626 211.143 237.125 210.543 236.524C209.942 235.923 208.74 235.623 206.788 235.623H199.88V246.285H197.628L197.778 246.135ZM200.03 233.671H206.338C208.59 233.671 210.092 233.37 211.143 232.469C212.044 231.718 212.645 230.517 212.645 228.865C212.645 227.213 212.495 227.363 212.194 226.763C211.894 226.162 211.444 225.712 210.843 225.261C210.392 224.961 209.942 224.811 209.191 224.66C208.59 224.66 207.539 224.51 206.188 224.51H200.03V233.671Z" fill="#3A3A39" stroke="white" stroke-width="2" mask="url(#path-8-inside-1_736_630)"/>
</svg>
