<svg width="32" height="17" viewBox="0 0 32 17" fill="none" xmlns="http://www.w3.org/2000/svg">
<path d="M8 16.6133C5.78667 16.6133 3.90027 15.833 2.3408 14.2725C0.781335 12.7119 0.00106776 10.8255 1.09215e-06 8.61327C-0.00106557 6.40101 0.779201 4.51461 2.3408 2.95408C3.9024 1.39355 5.7888 0.613281 8 0.613281H12.8C13.2533 0.613281 13.6336 0.766881 13.9408 1.07408C14.248 1.38128 14.4011 1.76101 14.4 2.21328C14.3989 2.66555 14.2453 3.04581 13.9392 3.35408C13.6331 3.66234 13.2533 3.81541 12.8 3.81328H8C6.66667 3.81328 5.53333 4.27994 4.6 5.21327C3.66667 6.14661 3.2 7.27994 3.2 8.61327C3.2 9.9466 3.66667 11.0799 4.6 12.0133C5.53333 12.9466 6.66667 13.4133 8 13.4133H12.8C13.2533 13.4133 13.6336 13.5669 13.9408 13.8741C14.248 14.1813 14.4011 14.561 14.4 15.0133C14.3989 15.4655 14.2453 15.8458 13.9392 16.1541C13.6331 16.4623 13.2533 16.6154 12.8 16.6133H8ZM11.2 10.2133C10.7467 10.2133 10.3669 10.0597 10.0608 9.75247C9.75467 9.44527 9.60107 9.06554 9.6 8.61327C9.59893 8.161 9.75253 7.78127 10.0608 7.47407C10.3691 7.16687 10.7488 7.01327 11.2 7.01327H20.8C21.2533 7.01327 21.6336 7.16687 21.9408 7.47407C22.248 7.78127 22.4011 8.161 22.4 8.61327C22.3989 9.06554 22.2453 9.4458 21.9392 9.75407C21.6331 10.0623 21.2533 10.2154 20.8 10.2133H11.2ZM19.2 16.6133C18.7467 16.6133 18.3669 16.4597 18.0608 16.1525C17.7547 15.8453 17.6011 15.4655 17.6 15.0133C17.5989 14.561 17.7525 14.1813 18.0608 13.8741C18.3691 13.5669 18.7488 13.4133 19.2 13.4133H24C25.3333 13.4133 26.4667 12.9466 27.4 12.0133C28.3333 11.0799 28.8 9.9466 28.8 8.61327C28.8 7.27994 28.3333 6.14661 27.4 5.21327C26.4667 4.27994 25.3333 3.81328 24 3.81328H19.2C18.7467 3.81328 18.3669 3.65968 18.0608 3.35248C17.7547 3.04528 17.6011 2.66555 17.6 2.21328C17.5989 1.76101 17.7525 1.38128 18.0608 1.07408C18.3691 0.766881 18.7488 0.613281 19.2 0.613281H24C26.2133 0.613281 28.1003 1.39355 29.6608 2.95408C31.2213 4.51461 32.0011 6.40101 32 8.61327C31.9989 10.8255 31.2187 12.7125 29.6592 14.2741C28.0997 15.8357 26.2133 16.6154 24 16.6133H19.2Z" fill="#F7B512"/>
</svg>
