<svg width="26" height="27" viewBox="0 0 26 27" fill="none" xmlns="http://www.w3.org/2000/svg">
<path d="M20.8334 26.6131C19.7003 26.6131 18.1086 26.2033 15.7252 24.872C12.8269 23.2469 10.5851 21.7467 7.70244 18.8722C4.92312 16.0951 3.57061 14.2971 1.67768 10.8533C-0.460793 6.96483 -0.0962546 4.92659 0.311239 4.05546C0.796517 3.01429 1.51282 2.39156 2.43868 1.77347C2.96457 1.42899 3.52108 1.13369 4.10117 0.891317C4.15921 0.866362 4.2132 0.842567 4.26138 0.821093C4.54871 0.691672 4.98407 0.49609 5.53552 0.705021C5.90354 0.843147 6.23209 1.12578 6.7464 1.6336C7.80112 2.67362 9.24244 4.98985 9.77416 6.12736C10.1311 6.89402 10.3674 7.4001 10.368 7.9677C10.368 8.63221 10.0336 9.14468 9.62788 9.69776C9.55183 9.80165 9.47637 9.90089 9.40323 9.99723C8.96149 10.5776 8.86455 10.7453 8.9284 11.0448C9.05785 11.6466 10.0232 13.4382 11.6096 15.0209C13.1961 16.6035 14.9363 17.5077 15.5406 17.6366C15.8529 17.7033 16.0241 17.6023 16.6232 17.145C16.7091 17.0794 16.7973 17.0115 16.8896 16.9436C17.5084 16.4834 17.9972 16.1578 18.6461 16.1578H18.6496C19.2144 16.1578 19.698 16.4027 20.499 16.8066C21.5439 17.3336 23.9302 18.7561 24.9768 19.8118C25.4859 20.3248 25.7697 20.6521 25.9085 21.0195C26.1175 21.5726 25.9207 22.0061 25.7924 22.2963C25.7709 22.3445 25.7471 22.3973 25.7221 22.4559C25.4778 23.0348 25.1807 23.5901 24.8346 24.1146C24.2176 25.0374 23.5924 25.7518 22.5487 26.2376C22.0128 26.491 21.4262 26.6194 20.8334 26.6131Z" fill="#F7B512"/>
</svg>
