<svg width="50" height="51" viewBox="0 0 50 51" fill="none" xmlns="http://www.w3.org/2000/svg">
<rect y="0.613281" width="50" height="50" rx="4" fill="#F7B512"/>
<path d="M29 15.6133C30.3261 15.6133 31.5979 16.1401 32.5355 17.0777C33.4732 18.0154 34 19.2872 34 20.6133V28.6133C34 29.9394 33.4732 31.2111 32.5355 32.1488C31.5979 33.0865 30.3261 33.6133 29 33.6133H21C19.6739 33.6133 18.4021 33.0865 17.4645 32.1488C16.5268 31.2111 16 29.9394 16 28.6133V20.6133C16 19.2872 16.5268 18.0154 17.4645 17.0777C18.4021 16.1401 19.6739 15.6133 21 15.6133H29ZM25 20.6133C23.9391 20.6133 22.9217 21.0347 22.1716 21.7849C21.4214 22.535 21 23.5524 21 24.6133C21 25.6741 21.4214 26.6916 22.1716 27.4417C22.9217 28.1919 23.9391 28.6133 25 28.6133C26.0609 28.6133 27.0783 28.1919 27.8284 27.4417C28.5786 26.6916 29 25.6741 29 24.6133C29 23.5524 28.5786 22.535 27.8284 21.7849C27.0783 21.0347 26.0609 20.6133 25 20.6133ZM25 22.6133C25.5304 22.6133 26.0391 22.824 26.4142 23.1991C26.7893 23.5741 27 24.0828 27 24.6133C27 25.1437 26.7893 25.6524 26.4142 26.0275C26.0391 26.4026 25.5304 26.6133 25 26.6133C24.4696 26.6133 23.9609 26.4026 23.5858 26.0275C23.2107 25.6524 23 25.1437 23 24.6133C23 24.0828 23.2107 23.5741 23.5858 23.1991C23.9609 22.824 24.4696 22.6133 25 22.6133ZM29.5 19.1133C29.2348 19.1133 28.9804 19.2186 28.7929 19.4062C28.6054 19.5937 28.5 19.8481 28.5 20.1133C28.5 20.3785 28.6054 20.6329 28.7929 20.8204C28.9804 21.0079 29.2348 21.1133 29.5 21.1133C29.7652 21.1133 30.0196 21.0079 30.2071 20.8204C30.3946 20.6329 30.5 20.3785 30.5 20.1133C30.5 19.8481 30.3946 19.5937 30.2071 19.4062C30.0196 19.2186 29.7652 19.1133 29.5 19.1133Z" fill="white"/>
</svg>
