<svg width="55" height="41" viewBox="0 0 55 41" fill="none" xmlns="http://www.w3.org/2000/svg">
<path fill-rule="evenodd" clip-rule="evenodd" d="M38.1037 33.2233C42.1202 22.9926 46.8766 12.4388 54.2225 3.33887C48.7791 3.33887 47.0879 5.27732 44.5512 7.00038L42.8601 8.45422C42.173 9.85421 41.5917 11.2542 40.9575 12.6542C39.0021 17.2311 37.4167 21.9695 35.9369 26.6003C34.9857 29.2387 33.5587 31.1233 31.8676 32.3618C30.3878 33.4387 28.7495 33.9233 27.1112 33.9233C25.4729 33.9233 23.8346 33.3848 22.3549 32.3079C20.7166 31.1233 19.2897 29.2387 18.4441 26.7079C17.1757 21.8618 15.4846 17.1772 13.4763 12.6542C12.8422 11.2542 12.208 9.85421 11.4681 8.50807L9.77696 7.05422C8.13866 5.92346 5.54909 3.39272 0 3.39272C7.29308 12.708 12.8422 22.6695 16.3302 33.331C20.3995 43.0771 33.6645 43.4002 38.1566 33.2771" fill="#FEFEFE"/>
<path fill-rule="evenodd" clip-rule="evenodd" d="M34.6684 26.2229C36.1481 21.5383 37.7864 16.7999 39.7418 12.1691C41.5387 7.96917 43.5469 3.8769 45.9779 0C43.7054 0.269229 42.5956 1.2923 41.3801 2.36921C41.1158 2.63844 40.7988 2.85383 40.5874 3.06921L30.8633 13.2999C29.5949 14.6461 28.3265 15.2922 27.0582 15.2922C25.7898 15.2922 24.5215 14.5922 23.3588 13.2461L13.7404 3.06921C13.529 2.90767 13.4233 2.79998 13.2647 2.63844C12.2606 1.72306 10.7809 0.323075 8.24414 0C10.6752 3.93074 12.842 7.96918 14.6916 12.1153C16.7527 16.6922 18.4439 21.3768 19.7122 26.2768C20.505 28.4844 21.7205 30.1537 23.1474 31.1767C24.3629 32.0383 25.737 32.5229 27.111 32.5229C28.4851 32.5229 29.8591 32.0921 31.0746 31.2306C32.5544 30.2075 33.8228 28.5383 34.6155 26.2229" fill="#FBBA1E"/>
</svg>
