<svg width="249" height="104" viewBox="0 0 249 104" fill="none" xmlns="http://www.w3.org/2000/svg">
<path d="M245.072 3.98929V8.28557H244.458V3.25279H245.44L246.668 7.11943C246.668 7.24218 246.729 7.30356 246.729 7.36494C246.729 7.36494 246.729 7.48769 246.729 7.54906C246.729 7.48769 246.729 7.36493 246.729 7.30356C246.729 7.24218 246.729 7.1808 246.729 7.11943L248.018 3.25279H249V8.28557H248.325V3.98929C248.325 4.05066 248.325 4.11204 248.325 4.23479C248.325 4.29616 248.325 4.35754 248.264 4.48029L246.975 8.34694H246.3L245.011 4.48029C245.011 4.41892 245.011 4.35754 244.949 4.29617C244.949 4.23479 244.949 4.17341 244.949 4.05066M241.512 8.28557V3.80516H239.917V3.19141H243.783V3.80516H242.187V8.28557H241.512Z" fill="white"/>
<path d="M181.057 36.273V43.1471C178.541 44.436 176.025 45.418 173.447 46.0931C170.869 46.7682 168.291 47.1365 165.775 47.1365C163.258 47.1365 161.049 46.8296 158.839 46.1545C156.63 45.5407 154.543 44.5587 152.579 43.3312C149.449 41.2444 146.994 38.6053 145.214 35.4138C143.434 32.2223 142.575 28.7239 142.575 24.98C142.575 21.2361 143.127 19.3948 144.294 16.6943C145.46 13.9938 147.117 11.6615 149.204 9.6975C151.474 7.54936 153.991 5.9536 156.814 4.91022C159.637 3.86684 162.768 3.31445 166.143 3.31445C169.519 3.31445 170.869 3.55996 173.263 4.11234C175.595 4.66471 178.05 5.52397 180.628 6.6901V13.2573C177.927 11.7843 175.411 10.7409 173.017 10.0044C170.685 9.32925 168.353 8.96099 166.143 8.96099C161.172 8.96099 157.121 10.4954 153.868 13.5641C150.615 16.6329 149.019 20.4996 149.019 25.1641C149.019 29.8286 150.615 33.5725 153.807 36.7027C156.998 39.7714 160.988 41.3058 165.836 41.3058C170.685 41.3058 170.808 40.8762 173.324 40.0783C175.84 39.2191 178.418 37.9916 181.057 36.273ZM213.341 60.455V18.3514H218.987V19.8858C220.031 19.1493 221.135 18.5969 222.302 18.2287C223.468 17.8604 224.757 17.6763 226.168 17.6763C230.219 17.6763 233.533 19.0266 236.05 21.7271C238.628 24.4276 239.855 27.926 239.855 32.2836C239.855 36.6413 238.566 40.0783 236.05 42.8402C233.472 45.5407 230.219 46.891 226.168 46.891C222.118 46.891 223.406 46.7069 222.24 46.4C221.074 46.0931 219.969 45.5407 218.926 44.8042V60.455H213.279H213.341ZM218.987 24.489V40.2011C219.908 40.8762 220.829 41.3672 221.749 41.6741C222.67 41.981 223.713 42.1651 224.757 42.1651C227.58 42.1651 229.851 41.3058 231.508 39.5259C233.165 37.7461 233.963 35.3524 233.963 32.345C233.963 29.3376 233.165 26.944 231.508 25.2255C229.851 23.507 227.641 22.6477 224.757 22.6477C221.872 22.6477 222.67 22.8318 221.749 23.0773C220.829 23.3842 219.908 23.8752 218.987 24.5503V24.489ZM200.268 46.3386V18.2901H205.853V46.3386H200.268ZM199.9 10.0657C199.9 9.14512 200.206 8.40861 200.82 7.79486C201.434 7.18111 202.171 6.87423 203.091 6.87423C204.012 6.87423 204.748 7.18111 205.362 7.79486C205.976 8.40861 206.283 9.14512 206.283 10.0657C206.283 10.9864 205.976 11.7229 205.362 12.3366C204.748 12.9504 204.012 13.2573 203.091 13.2573C202.171 13.2573 201.434 12.9504 200.82 12.3366C200.206 11.7229 199.9 10.9864 199.9 10.0657ZM187.195 46.3386V3.86684H192.78V46.3386H187.195ZM123.671 40.8148L111.887 18.2901H118.086L126.74 34.6773L134.78 18.2901H140.856L120.05 60.3936H113.974L123.671 40.7534V40.8148ZM67.0833 46.3386V3.86684H72.3615L87.644 21.6657L102.926 3.86684H108.205V46.3386H102.313V13.1959L87.644 30.3196L72.9753 13.1959V46.3386H67.0833Z" fill="white"/>
<path fill-rule="evenodd" clip-rule="evenodd" d="M44.3132 37.87C48.9777 26.2087 54.5015 14.1791 63.0327 3.80664C56.711 3.80664 54.747 6.01616 51.801 7.98017L49.837 9.6373C49.0391 11.2331 48.364 12.8288 47.6275 14.4246C45.3566 19.6415 43.5153 25.0425 41.7968 30.3208C40.692 33.3282 39.0349 35.4763 37.0709 36.888C35.3524 38.1155 33.4497 38.6679 31.5471 38.6679C29.6445 38.6679 27.7418 38.0541 26.0233 36.8266C24.1207 35.4763 22.4635 33.3282 21.4815 30.4436C20.0085 24.9198 18.0445 19.5801 15.7123 14.4246C14.9757 12.8288 14.2392 11.2331 13.38 9.69868L11.416 8.04154C9.51334 6.75266 6.50594 3.86802 0.0615234 3.86802C8.53133 14.486 14.9757 25.8404 19.0265 37.9927C23.7524 49.1017 39.1577 49.4699 44.3746 37.9314" fill="white"/>
<path fill-rule="evenodd" clip-rule="evenodd" d="M40.3237 29.8898C42.0422 24.5502 43.9448 19.1491 46.2157 13.8708C48.3025 9.08355 50.6348 4.41903 53.458 0C50.8189 0.306877 49.53 1.47301 48.1184 2.70051C47.8115 3.00739 47.4432 3.25289 47.1977 3.4984L35.9047 15.1597C34.4316 16.6941 32.9586 17.4306 31.4856 17.4306C30.0126 17.4306 28.5396 16.6327 27.1894 15.0983L16.019 3.4984C15.7735 3.31427 15.6508 3.19152 15.4667 3.00739C14.3005 1.96401 12.582 0.368252 9.63599 0C12.4593 4.4804 14.9756 9.08356 17.1238 13.8095C19.5174 19.0264 21.4814 24.366 22.9544 29.9512C23.8751 32.4676 25.2867 34.3702 26.9438 35.5364C28.3555 36.5184 29.9512 37.0707 31.547 37.0707C33.1428 37.0707 34.7385 36.5797 36.1502 35.5977C37.8687 34.4316 39.3417 32.529 40.2623 29.8898" fill="#FBBA1E"/>
<path d="M221.32 77.394C221.32 77.7009 221.32 77.885 221.504 77.9464C221.627 78.0077 221.872 78.0691 222.24 78.0691C222.609 78.0691 222.363 78.0691 222.363 78.0691H222.424V78.9284C222.424 78.9284 222.302 78.9284 222.179 78.9284C221.933 78.9284 221.749 78.9284 221.688 78.9284C221.258 78.9284 220.89 78.867 220.706 78.6829C220.46 78.4987 220.399 78.2533 220.399 77.885V72.7908H219.478V71.993H220.399V70.1517H221.32V71.993H222.424V72.7908H221.32V77.394ZM213.464 76.7189H214.384C214.384 76.7802 214.384 76.8416 214.384 76.903C214.384 77.2712 214.507 77.5781 214.691 77.7622C214.875 77.9464 215.182 78.0691 215.612 78.0691C216.041 78.0691 216.287 77.9464 216.471 77.7622C216.655 77.5781 216.778 77.2712 216.778 76.9644C216.778 76.412 216.348 76.0437 215.55 75.7369C214.691 75.43 214.2 75.1845 213.955 74.8776C213.709 74.5707 213.586 74.2025 213.586 73.6501C213.586 73.0977 213.771 72.6067 214.139 72.2385C214.507 71.9316 214.998 71.7475 215.612 71.7475C216.226 71.7475 216.778 71.9316 217.085 72.2385C217.392 72.5453 217.576 73.0363 217.576 73.6501V73.7728H216.655C216.655 73.3432 216.532 73.0363 216.348 72.8522C216.164 72.6681 215.919 72.5453 215.55 72.5453C215.182 72.5453 214.875 72.6067 214.691 72.7908C214.507 72.975 214.384 73.2205 214.384 73.5887C214.384 73.957 214.384 73.8956 214.446 74.0183C214.446 74.1411 214.568 74.2638 214.63 74.3252C214.814 74.448 215.121 74.6321 215.673 74.8162C215.98 74.8776 216.164 75.0004 216.287 75.0617C216.778 75.2459 217.085 75.4914 217.269 75.7369C217.453 76.0437 217.576 76.412 217.576 76.8416C217.576 77.5167 217.392 78.0691 216.962 78.4374C216.594 78.8056 215.98 78.9897 215.305 78.9897C214.63 78.9897 214.139 78.8056 213.771 78.4374C213.402 78.0691 213.28 77.5781 213.28 76.903V76.7802L213.464 76.7189ZM206.712 80.9538V80.0945C206.835 80.0945 206.896 80.1559 207.019 80.2173C207.142 80.2173 207.203 80.2173 207.326 80.2173C207.633 80.2173 207.817 80.0945 208.001 79.9104C208.185 79.7263 208.308 79.358 208.492 78.8056L206.467 71.9316H207.51L208.983 77.4554L210.518 71.9316H211.5L209.413 79.0511C209.167 79.849 208.922 80.34 208.676 80.6469C208.369 80.9538 208.001 81.0765 207.449 81.0765C206.896 81.0765 207.265 81.0765 207.142 81.0765C207.019 81.0765 206.896 81.0765 206.774 81.0151L206.712 80.9538ZM199.163 75.921H200.145V76.2279C200.145 76.8416 200.268 77.3326 200.575 77.6395C200.882 77.9464 201.311 78.1305 201.864 78.1305C202.416 78.1305 202.784 78.0077 203.03 77.7009C203.337 77.394 203.459 76.9644 203.459 76.412C203.459 75.8596 203.398 75.6755 203.214 75.43C203.03 75.1845 202.662 74.939 202.048 74.7549C201.925 74.7549 201.68 74.6321 201.434 74.5094C200.698 74.2639 200.268 74.0183 200.084 73.8956C199.838 73.6501 199.654 73.4046 199.531 73.0977C199.409 72.7908 199.347 72.4226 199.347 71.993C199.347 71.1951 199.593 70.5813 200.022 70.1517C200.452 69.7221 201.066 69.4766 201.864 69.4766C202.662 69.4766 203.214 69.6607 203.582 70.0903C204.012 70.5199 204.196 71.0723 204.196 71.8088C204.196 72.5453 204.196 71.8088 204.196 71.9316C204.196 71.9316 204.196 71.993 204.196 72.0543H203.275V71.9316C203.275 71.4406 203.153 71.011 202.907 70.7654C202.662 70.4586 202.293 70.3358 201.864 70.3358C201.434 70.3358 201.004 70.4586 200.759 70.7654C200.513 71.011 200.329 71.3792 200.329 71.8702C200.329 72.3612 200.452 72.6067 200.636 72.8522C200.82 73.0977 201.25 73.3432 201.864 73.5273C201.925 73.5273 202.048 73.5887 202.171 73.6501C203.153 74.0183 203.705 74.2638 203.889 74.448C204.135 74.6321 204.257 74.939 204.38 75.1845C204.503 75.4913 204.564 75.8596 204.564 76.2892C204.564 77.1485 204.319 77.8236 203.828 78.3146C203.337 78.8056 202.662 79.0511 201.802 79.0511C200.943 79.0511 200.329 78.8056 199.9 78.3146C199.47 77.8236 199.225 77.1485 199.225 76.2279C199.225 75.3072 199.225 76.1665 199.225 76.1051C199.225 76.0437 199.225 75.9824 199.225 75.9824L199.163 75.921ZM191.43 78.8056V71.993H192.289V73.0977C192.412 72.7295 192.657 72.3612 192.903 72.1771C193.21 71.9316 193.517 71.8088 193.885 71.8088C194.253 71.8088 194.069 71.8088 194.13 71.8088C194.13 71.8088 194.253 71.8088 194.315 71.8088V72.8522C194.315 72.8522 194.192 72.8522 194.13 72.7908C194.13 72.7908 194.008 72.7908 193.946 72.7908C193.455 72.7908 193.087 72.975 192.78 73.2818C192.473 73.5887 192.35 74.0797 192.35 74.6321V78.8056H191.43ZM187.809 78.8056V71.993H188.791V78.8056H187.809ZM187.809 70.8882V69.6607H188.791V70.8882H187.809ZM185.599 78.8056C185.476 78.8056 185.354 78.8056 185.292 78.8056C185.231 78.8056 185.108 78.8056 185.047 78.8056C184.801 78.8056 184.556 78.7442 184.433 78.5601C184.249 78.376 184.188 78.1305 184.188 77.8236C184.065 78.1919 183.819 78.4374 183.574 78.6215C183.267 78.8056 182.96 78.9284 182.592 78.9284C182.224 78.9284 181.733 78.7443 181.426 78.4374C181.18 78.1305 180.996 77.6395 180.996 77.0257C180.996 76.412 181.119 75.9824 181.364 75.6755C181.61 75.3686 182.162 75.0617 183.021 74.8162C183.697 74.5707 184.065 74.3252 184.065 74.0183V73.4046C184.065 73.0977 184.003 72.9136 183.819 72.7908C183.635 72.6681 183.39 72.6067 183.021 72.6067C182.653 72.6067 182.408 72.6681 182.285 72.8522C182.101 73.0363 182.039 73.2818 182.039 73.6501V73.7728H181.119C181.119 73.0977 181.303 72.5453 181.61 72.2385C181.917 71.9316 182.408 71.7475 183.144 71.7475C183.881 71.7475 184.249 71.8702 184.556 72.1771C184.863 72.484 184.985 72.9136 184.985 73.5887V77.5781C184.985 77.7622 184.985 77.885 185.108 77.9464C185.17 78.0077 185.292 78.0691 185.415 78.0691C185.538 78.0691 185.476 78.0691 185.538 78.0691V78.8056H185.599ZM184.065 75.1231C183.942 75.3072 183.574 75.4914 183.083 75.6755C183.083 75.6755 183.021 75.6755 182.96 75.6755C182.53 75.8596 182.224 75.9824 182.101 76.2279C181.978 76.412 181.917 76.7189 181.917 77.0871C181.917 77.4554 181.978 77.7009 182.162 77.885C182.285 78.0691 182.53 78.1919 182.776 78.1919C183.144 78.1919 183.512 78.0691 183.697 77.7622C183.942 77.4554 184.065 77.0871 184.065 76.5347V75.1845V75.1231ZM174.122 81.0765V71.9316H175.043V72.7908C175.104 72.484 175.288 72.2385 175.534 72.0543C175.779 71.8702 176.086 71.7475 176.454 71.7475C177.191 71.7475 177.743 72.0543 178.05 72.6681C178.418 73.2818 178.602 74.1411 178.602 75.3072C178.602 76.4734 178.418 77.4554 178.111 78.0077C177.805 78.5601 177.252 78.867 176.516 78.867C175.779 78.867 175.902 78.8056 175.656 78.6215C175.411 78.4987 175.227 78.2532 175.043 77.9464V80.9538H174.061L174.122 81.0765ZM175.043 75.3686C175.043 76.2892 175.165 76.9644 175.35 77.4554C175.595 77.885 175.902 78.1305 176.393 78.1305C176.884 78.1305 177.129 77.885 177.314 77.4554C177.498 77.0257 177.62 76.3506 177.62 75.3686C177.62 74.3866 177.498 73.7115 177.314 73.3432C177.129 72.9136 176.823 72.7295 176.332 72.7295C175.841 72.7295 175.534 72.9136 175.288 73.3432C175.104 73.7728 174.981 74.448 174.981 75.43L175.043 75.3686ZM170.685 76.4734H171.606C171.606 77.2712 171.421 77.885 171.053 78.3146C170.685 78.7442 170.194 78.9284 169.519 78.9284C168.844 78.9284 168.23 78.6215 167.862 78.0691C167.493 77.5167 167.309 76.5961 167.309 75.43C167.309 74.2639 167.493 73.2205 167.862 72.6067C168.23 71.993 168.782 71.7475 169.519 71.7475C170.255 71.7475 170.746 71.993 171.115 72.484C171.483 72.975 171.606 73.7728 171.606 74.7549C171.606 75.7369 171.606 75.0617 171.606 75.1231C171.606 75.1845 171.606 75.3072 171.606 75.3686H168.353V75.6755C168.353 76.5347 168.475 77.1485 168.66 77.5167C168.844 77.885 169.151 78.1305 169.58 78.1305C170.01 78.1305 170.194 78.0077 170.378 77.7009C170.562 77.394 170.685 77.0257 170.685 76.4734ZM168.353 74.6321H170.685V74.448C170.685 73.8342 170.624 73.3432 170.439 73.0363C170.255 72.7295 170.01 72.5453 169.642 72.5453C169.273 72.5453 168.905 72.7295 168.721 73.0363C168.537 73.4046 168.414 73.8956 168.414 74.6321H168.353ZM159.515 78.8056V69.6607H162.092C163.013 69.6607 163.75 69.8448 164.179 70.2131C164.609 70.5813 164.854 71.1951 164.854 71.993C164.854 72.7908 164.732 73.0977 164.425 73.466C164.118 73.8342 163.75 74.0797 163.136 74.2638C163.627 74.2638 163.995 74.448 164.302 74.7549C164.547 75.0617 164.732 75.4913 164.793 76.1051C164.793 76.3506 164.793 76.6575 164.854 77.0257C164.916 78.0077 165.1 78.6215 165.345 78.867H164.056C163.934 78.6829 163.872 78.1305 163.811 77.394C163.811 77.0257 163.811 76.7189 163.811 76.4734C163.811 75.8596 163.565 75.43 163.32 75.1845C163.074 74.939 162.583 74.8162 161.847 74.8162H160.558V78.867H159.576L159.515 78.8056ZM160.497 73.8342H161.724C162.461 73.8342 162.952 73.7115 163.32 73.4046C163.627 73.1591 163.811 72.7295 163.811 72.1157C163.811 71.5019 163.688 71.1337 163.381 70.8882C163.074 70.6427 162.583 70.52 161.97 70.52H160.558V73.8342H160.497ZM152.947 76.4734H153.868C153.868 77.2712 153.684 77.885 153.316 78.3146C152.947 78.7442 152.456 78.9284 151.781 78.9284C151.106 78.9284 150.492 78.6215 150.124 78.0691C149.756 77.5167 149.572 76.5961 149.572 75.43C149.572 74.2639 149.756 73.2205 150.124 72.6067C150.492 71.993 151.045 71.7475 151.781 71.7475C152.518 71.7475 153.009 71.993 153.377 72.484C153.745 72.975 153.868 73.7728 153.868 74.7549C153.868 75.7369 153.868 75.0617 153.868 75.1231C153.868 75.1845 153.868 75.3072 153.868 75.3686H150.615V75.6755C150.615 76.5347 150.738 77.1485 150.922 77.5167C151.106 77.885 151.413 78.1305 151.843 78.1305C152.272 78.1305 152.456 78.0077 152.641 77.7009C152.825 77.394 152.947 77.0257 152.947 76.4734ZM150.615 74.6321H152.947V74.448C152.947 73.8342 152.886 73.3432 152.702 73.0363C152.518 72.7295 152.272 72.5453 151.904 72.5453C151.536 72.5453 151.168 72.7295 150.983 73.0363C150.799 73.4046 150.677 73.8956 150.677 74.6321H150.615ZM142.882 79.4194H143.803C143.803 79.7263 143.925 79.9104 144.109 80.0331C144.294 80.1559 144.539 80.2173 144.907 80.2173C145.276 80.2173 145.705 80.0945 145.889 79.7876C146.073 79.4807 146.196 78.9897 146.196 78.3146C146.196 77.6395 146.196 78.2533 146.196 78.1919C146.196 78.1305 146.196 78.0691 146.196 78.0077C146.073 78.3146 145.889 78.5601 145.582 78.6829C145.337 78.867 145.03 78.9284 144.662 78.9284C143.987 78.9284 143.434 78.6215 143.127 78.0077C142.759 77.394 142.636 76.4734 142.636 75.1845C142.636 73.8956 142.821 73.2205 143.189 72.6681C143.557 72.1157 144.109 71.8088 144.785 71.8088C145.46 71.8088 145.46 71.8702 145.705 72.0543C145.951 72.2385 146.135 72.4839 146.258 72.7295V71.9316H147.178V78.4374C147.178 79.2966 146.994 79.9104 146.564 80.4014C146.135 80.831 145.582 81.0765 144.846 81.0765C144.109 81.0765 143.803 80.8924 143.434 80.6469C143.066 80.34 142.882 79.9717 142.882 79.4807V79.4194ZM143.68 75.3686C143.68 76.3506 143.803 77.0257 143.987 77.394C144.171 77.8236 144.539 78.0077 144.969 78.0077C145.398 78.0077 145.767 77.8236 145.951 77.394C146.135 76.9644 146.258 76.2892 146.258 75.2458C146.258 74.2025 146.135 73.6501 145.951 73.2205C145.767 72.7908 145.398 72.6067 144.907 72.6067C144.416 72.6067 144.171 72.7908 143.925 73.2818C143.741 73.7115 143.618 74.448 143.618 75.43L143.68 75.3686ZM140.181 78.8056H139.261V77.9464C139.199 78.2532 139.015 78.4987 138.708 78.6829C138.463 78.867 138.095 78.9284 137.788 78.9284C137.113 78.9284 136.56 78.6215 136.192 77.9464C135.824 77.3326 135.64 76.3506 135.64 75.1231C135.64 73.8956 135.824 73.2205 136.192 72.6681C136.56 72.0543 137.113 71.8088 137.726 71.8088C138.34 71.8088 138.402 71.8702 138.708 72.0543C138.954 72.2385 139.138 72.4226 139.199 72.6681V69.6607H140.181V78.8056ZM139.261 75.3072C139.261 74.3252 139.138 73.5887 138.954 73.2205C138.77 72.8522 138.402 72.6067 137.972 72.6067C137.542 72.6067 137.174 72.7908 136.99 73.2205C136.806 73.6501 136.683 74.3252 136.683 75.1845C136.683 76.0437 136.806 76.903 136.99 77.3326C137.174 77.7622 137.542 78.0077 137.972 78.0077C138.402 78.0077 138.77 77.8236 139.015 77.394C139.199 76.9644 139.322 76.2892 139.322 75.3072H139.261ZM128.704 78.8056V69.6607H133.246V70.5813H129.748V73.5273H133.062V74.448H129.748V77.8236H133.307V78.8056H128.766H128.704ZM119.314 75.3686C119.314 76.412 119.437 77.0871 119.621 77.5167C119.805 77.9464 120.173 78.1305 120.664 78.1305C121.155 78.1305 121.523 77.9464 121.707 77.5167C121.892 77.0871 122.014 76.3506 122.014 75.3686C122.014 74.3866 121.892 73.6501 121.707 73.2205C121.523 72.7908 121.155 72.6067 120.664 72.6067C120.173 72.6067 119.805 72.7908 119.621 73.2205C119.437 73.6501 119.314 74.3252 119.314 75.3686ZM118.332 75.3686C118.332 74.1411 118.516 73.2205 118.946 72.6681C119.314 72.0543 119.928 71.8088 120.725 71.8088C121.523 71.8088 122.137 72.1157 122.567 72.6681C122.935 73.2818 123.18 74.1411 123.18 75.43C123.18 76.7189 122.996 77.5781 122.628 78.1305C122.26 78.6829 121.646 78.9897 120.787 78.9897C119.928 78.9897 119.375 78.6829 118.946 78.1305C118.577 77.5781 118.393 76.6575 118.393 75.43L118.332 75.3686ZM114.22 78.8056V70.5813H111.887V69.6607H117.473V70.5813H115.263V78.8056H114.22ZM105.995 76.4734H106.916C106.916 77.2712 106.732 77.885 106.364 78.3146C105.995 78.7442 105.504 78.9284 104.829 78.9284C104.154 78.9284 103.54 78.6215 103.172 78.0691C102.804 77.5167 102.62 76.5961 102.62 75.43C102.62 74.2639 102.804 73.2205 103.172 72.6067C103.54 71.993 104.093 71.7475 104.829 71.7475C105.566 71.7475 106.057 71.993 106.425 72.484C106.793 72.975 106.916 73.7728 106.916 74.7549C106.916 75.7369 106.916 75.0617 106.916 75.1231C106.916 75.1845 106.916 75.3072 106.916 75.3686H103.663V75.6755C103.663 76.5347 103.786 77.1485 103.97 77.5167C104.154 77.885 104.461 78.1305 104.891 78.1305C105.32 78.1305 105.504 78.0077 105.688 77.7009C105.873 77.394 105.995 77.0257 105.995 76.4734ZM103.663 74.6321H105.995V74.448C105.995 73.8342 105.934 73.3432 105.75 73.0363C105.566 72.7295 105.32 72.5453 104.952 72.5453C104.584 72.5453 104.215 72.7295 104.031 73.0363C103.847 73.4046 103.724 73.8956 103.724 74.6321H103.663ZM95.8684 79.4194H96.789C96.789 79.7263 96.9118 79.9104 97.0959 80.0331C97.28 80.1559 97.5255 80.2173 97.8938 80.2173C98.262 80.2173 98.6916 80.0945 98.8758 79.7876C99.0599 79.4807 99.1826 78.9897 99.1826 78.3146C99.1826 77.6395 99.1826 78.2533 99.1826 78.1919C99.1826 78.1305 99.1826 78.0691 99.1826 78.0077C99.0599 78.3146 98.8758 78.5601 98.5689 78.6829C98.3234 78.867 98.0165 78.9284 97.6483 78.9284C96.9731 78.9284 96.4208 78.6215 96.1139 78.0077C95.7456 77.394 95.6229 76.4734 95.6229 75.1845C95.6229 73.8956 95.807 73.2205 96.1753 72.6681C96.5435 72.1157 97.0959 71.8088 97.771 71.8088C98.4462 71.8088 98.4462 71.8702 98.6917 72.0543C98.9371 72.2385 99.1213 72.4839 99.244 72.7295V71.9316H100.165V78.4374C100.165 79.2966 99.9805 79.9104 99.5509 80.4014C99.1213 80.831 98.5689 81.0765 97.8324 81.0765C97.0959 81.0765 96.789 80.8924 96.4208 80.6469C96.0525 80.34 95.8684 79.9717 95.8684 79.4807V79.4194ZM96.6663 75.3686C96.6663 76.3506 96.789 77.0257 96.9731 77.394C97.1573 77.8236 97.5255 78.0077 97.9551 78.0077C98.3848 78.0077 98.753 77.8236 98.9371 77.394C99.1213 76.9644 99.244 76.2892 99.244 75.2458C99.244 74.2025 99.1213 73.6501 98.9371 73.2205C98.753 72.7908 98.3848 72.6067 97.8938 72.6067C97.4028 72.6067 97.1572 72.7908 96.9118 73.2818C96.7276 73.7115 96.6049 74.448 96.6049 75.43L96.6663 75.3686ZM93.1679 78.8056H92.2472V77.9464C92.1859 78.2532 92.0017 78.4987 91.6948 78.6829C91.4493 78.867 91.0811 78.9284 90.7742 78.9284C90.0991 78.9284 89.5467 78.6215 89.1785 77.9464C88.8102 77.3326 88.6261 76.3506 88.6261 75.1231C88.6261 73.8956 88.8102 73.2205 89.1785 72.6681C89.5467 72.0543 90.0991 71.8088 90.7128 71.8088C91.3266 71.8088 91.388 71.8702 91.6948 72.0543C91.9403 72.2385 92.1245 72.4226 92.1859 72.6681V69.6607H93.1679V78.8056ZM92.3086 75.3072C92.3086 74.3252 92.1858 73.5887 92.0017 73.2205C91.8176 72.8522 91.4494 72.6067 91.0197 72.6067C90.5901 72.6067 90.2218 72.7908 90.0377 73.2205C89.8536 73.6501 89.7308 74.3252 89.7308 75.1845C89.7308 76.0437 89.8536 76.903 90.0377 77.3326C90.2218 77.7622 90.5901 78.0077 91.0197 78.0077C91.4494 78.0077 91.8176 77.8236 92.0631 77.394C92.2472 76.9644 92.37 76.2892 92.37 75.3072H92.3086ZM81.752 78.8056V69.6607H86.2938V70.5813H82.7954V73.5273H86.1097V74.448H82.7954V77.8236H86.3552V78.8056H81.8134H81.752ZM73.896 78.8056V71.993H74.7552V73.0977C74.878 72.7295 75.1235 72.3612 75.369 72.1771C75.6759 71.9316 75.9827 71.8088 76.351 71.8088C76.7192 71.8088 76.5351 71.8088 76.5965 71.8088C76.5965 71.8088 76.7193 71.8088 76.7806 71.8088V72.8522C76.7806 72.8522 76.6579 72.8522 76.5965 72.7908C76.5965 72.7908 76.4737 72.7908 76.4124 72.7908C75.9214 72.7908 75.5531 72.975 75.2462 73.2818C75.0007 73.5887 74.8166 74.0797 74.8166 74.6321V78.8056H73.896ZM70.3976 76.4734H71.3182C71.3182 77.2712 71.1341 77.885 70.7658 78.3146C70.3976 78.7442 69.9066 78.9284 69.2315 78.9284C68.5563 78.9284 67.9426 78.6215 67.5743 78.0691C67.2061 77.5167 67.0219 76.5961 67.0219 75.43C67.0219 74.2639 67.2061 73.2205 67.5743 72.6067C67.9426 71.993 68.495 71.7475 69.2315 71.7475C69.968 71.7475 70.459 71.993 70.8272 72.484C71.1955 72.975 71.3182 73.7728 71.3182 74.7549C71.3182 75.7369 71.3182 75.0617 71.3182 75.1231C71.3182 75.1845 71.3182 75.3072 71.3182 75.3686H68.0653V75.6755C68.0653 76.5347 68.1881 77.1485 68.3722 77.5167C68.5563 77.885 68.8632 78.1305 69.2928 78.1305C69.7225 78.1305 69.9066 78.0077 70.0907 77.7009C70.2748 77.394 70.3976 77.0257 70.3976 76.4734ZM68.0653 74.6321H70.3976V74.448C70.3976 73.8342 70.3362 73.3432 70.1521 73.0363C69.968 72.7295 69.7225 72.5453 69.3542 72.5453C68.9859 72.5453 68.6177 72.7295 68.4336 73.0363C68.2494 73.4046 68.1267 73.8956 68.1267 74.6321H68.0653ZM64.1373 77.394C64.1373 77.7009 64.1373 77.885 64.3214 77.9464C64.4442 78.0077 64.6897 78.0691 65.0579 78.0691C65.4262 78.0691 65.1807 78.0691 65.1807 78.0691H65.2421V78.9284C65.2421 78.9284 65.1193 78.9284 64.9965 78.9284C64.751 78.9284 64.5669 78.9284 64.5055 78.9284C64.0759 78.9284 63.7077 78.867 63.5235 78.6829C63.278 78.4987 63.2167 78.2533 63.2167 77.885V72.7908H62.296V71.993H63.2167V70.1517H64.1373V71.993H65.2421V72.7908H64.1373V77.394ZM59.5955 76.4734H60.5161C60.5161 77.2712 60.332 77.885 59.9638 78.3146C59.5955 78.7442 59.1045 78.9284 58.4294 78.9284C57.7543 78.9284 57.1405 78.6215 56.7722 78.0691C56.404 77.5167 56.2199 76.5961 56.2199 75.43C56.2199 74.2639 56.404 73.2205 56.7722 72.6067C57.1405 71.993 57.6929 71.7475 58.4294 71.7475C59.1659 71.7475 59.6569 71.993 60.0252 72.484C60.3934 72.975 60.5161 73.7728 60.5161 74.7549C60.5161 75.7369 60.5161 75.0617 60.5161 75.1231C60.5161 75.1845 60.5161 75.3072 60.5161 75.3686H57.2633V75.6755C57.2633 76.5347 57.386 77.1485 57.5701 77.5167C57.7543 77.885 58.0611 78.1305 58.4908 78.1305C58.9204 78.1305 59.1045 78.0077 59.2886 77.7009C59.4728 77.394 59.5955 77.0257 59.5955 76.4734ZM57.2633 74.6321H59.5955V74.448C59.5955 73.8342 59.5341 73.3432 59.35 73.0363C59.1659 72.7295 58.9204 72.5453 58.5521 72.5453C58.1839 72.5453 57.8156 72.7295 57.6315 73.0363C57.4474 73.4046 57.3246 73.8956 57.3246 74.6321H57.2633ZM49.53 78.8056V69.6607H50.512V72.7295C50.6961 72.4226 50.9416 72.1771 51.1871 72.0543C51.4326 71.9316 51.8008 71.8088 52.1691 71.8088C52.5373 71.8088 53.0897 71.9316 53.3966 72.2385C53.7035 72.484 53.8262 72.9136 53.8262 73.4046V78.8056H52.8442V73.8342C52.8442 73.4046 52.7828 73.1591 52.5987 72.975C52.476 72.7908 52.2305 72.7295 51.8622 72.7295C51.494 72.7295 51.1257 72.8522 50.8188 73.1591C50.5733 73.4046 50.4506 73.7728 50.4506 74.2638V78.867H49.4686L49.53 78.8056ZM46.3998 77.394C46.3998 77.7009 46.3998 77.885 46.5839 77.9464C46.7067 78.0077 46.9522 78.0691 47.3204 78.0691C47.6887 78.0691 47.4432 78.0691 47.4432 78.0691H47.5046V78.9284C47.5046 78.9284 47.3818 78.9284 47.2591 78.9284C47.0136 78.9284 46.8294 78.9284 46.7681 78.9284C46.3384 78.9284 45.9702 78.867 45.786 78.6829C45.5406 78.4987 45.4792 78.2533 45.4792 77.885V72.7908H44.5585V71.993H45.4792V70.1517H46.3998V71.993H47.5046V72.7908H46.3998V77.394ZM43.0855 78.8056C42.9628 78.8056 42.84 78.8056 42.7787 78.8056C42.7173 78.8056 42.5945 78.8056 42.5332 78.8056C42.2877 78.8056 42.0422 78.7442 41.9194 78.5601C41.7353 78.376 41.6739 78.1305 41.6739 77.8236C41.5511 78.1919 41.3056 78.4374 41.0601 78.6215C40.7533 78.8056 40.4464 78.9284 40.0781 78.9284C39.7099 78.9284 39.2189 78.7443 38.912 78.4374C38.6665 78.1305 38.4824 77.6395 38.4824 77.0257C38.4824 76.412 38.6051 75.9824 38.8506 75.6755C39.0961 75.3686 39.6485 75.0617 40.5078 74.8162C41.1829 74.5707 41.5512 74.3252 41.5512 74.0183V73.4046C41.5512 73.0977 41.4898 72.9136 41.3057 72.7908C41.1215 72.6681 40.876 72.6067 40.5078 72.6067C40.1395 72.6067 39.894 72.6681 39.7713 72.8522C39.5871 73.0363 39.5258 73.2818 39.5258 73.6501V73.7728H38.6051C38.6051 73.0977 38.7893 72.5453 39.0961 72.2385C39.403 71.9316 39.894 71.7475 40.6305 71.7475C41.367 71.7475 41.7353 71.8702 42.0421 72.1771C42.349 72.484 42.4718 72.9136 42.4718 73.5887V77.5781C42.4718 77.7622 42.4718 77.885 42.5945 77.9464C42.6559 78.0077 42.7786 78.0691 42.9014 78.0691C43.0242 78.0691 42.9628 78.0691 43.0242 78.0691V78.8056H43.0855ZM41.6125 75.1231C41.4898 75.3072 41.1215 75.4914 40.6305 75.6755C40.6305 75.6755 40.5691 75.6755 40.5078 75.6755C40.0781 75.8596 39.7713 75.9824 39.6485 76.2279C39.5258 76.412 39.4644 76.7189 39.4644 77.0871C39.4644 77.4554 39.5258 77.7009 39.7099 77.885C39.8326 78.0691 40.0781 78.1919 40.3236 78.1919C40.6919 78.1919 41.0602 78.0691 41.2443 77.7622C41.4898 77.4554 41.6125 77.0871 41.6125 76.5347V75.1845V75.1231ZM35.1067 76.412H36.0274C36.0274 77.2099 35.8432 77.885 35.475 78.3146C35.1067 78.7442 34.5544 78.9897 33.8792 78.9897C33.2041 78.9897 32.529 78.6829 32.2221 78.0691C31.8538 77.4554 31.6697 76.5347 31.6697 75.3072C31.6697 74.0797 31.8538 73.2205 32.2221 72.6681C32.5903 72.0543 33.2041 71.8088 33.9406 71.8088C34.6771 71.8088 35.1067 71.9929 35.475 72.4226C35.8432 72.7908 36.0274 73.3432 36.0274 74.0183V74.1411H35.1067C35.1067 73.6501 34.984 73.2818 34.7999 73.0363C34.6157 72.7908 34.3702 72.6681 34.002 72.6681C33.6337 72.6681 33.2041 72.8522 33.02 73.2818C32.8358 73.7115 32.7131 74.3866 32.7131 75.3686C32.7131 76.3506 32.8358 77.0871 33.02 77.5167C33.2041 77.9464 33.5723 78.1305 34.002 78.1305C34.4316 78.1305 34.6157 78.0077 34.7999 77.7009C34.984 77.394 35.1067 76.9644 35.1067 76.412ZM25.0412 76.7189H25.9618C25.9618 76.7802 25.9618 76.8416 25.9618 76.903C25.9618 77.2712 26.0846 77.5781 26.2687 77.7622C26.4528 77.9464 26.7597 78.0691 27.1893 78.0691C27.6189 78.0691 27.8644 77.9464 28.0486 77.7622C28.2327 77.5781 28.3554 77.2712 28.3554 76.9644C28.3554 76.412 27.9258 76.0437 27.1279 75.7369C26.2687 75.43 25.7777 75.1845 25.5322 74.8776C25.2867 74.5707 25.1639 74.2025 25.1639 73.6501C25.1639 73.0977 25.348 72.6067 25.7163 72.2385C26.0845 71.9316 26.5756 71.7475 27.1893 71.7475C27.8031 71.7475 28.3554 71.9316 28.6623 72.2385C28.9692 72.5453 29.1533 73.0363 29.1533 73.6501V73.7728H28.2327C28.2327 73.3432 28.1099 73.0363 27.9258 72.8522C27.7417 72.6681 27.4962 72.5453 27.1279 72.5453C26.7597 72.5453 26.4528 72.6067 26.2687 72.7908C26.0846 72.975 25.9618 73.2205 25.9618 73.5887C25.9618 73.957 25.9618 73.8956 26.0232 74.0183C26.0232 74.1411 26.1459 74.2638 26.2073 74.3252C26.3914 74.448 26.6983 74.6321 27.2507 74.8162C27.5576 74.8776 27.7417 75.0004 27.8644 75.0617C28.3554 75.2459 28.6623 75.4914 28.8464 75.7369C29.0306 76.0437 29.1533 76.412 29.1533 76.8416C29.1533 77.5167 28.9692 78.0691 28.5396 78.4374C28.1713 78.8056 27.5576 78.9897 26.8824 78.9897C26.2073 78.9897 25.7163 78.8056 25.3481 78.4374C24.9798 78.0691 24.857 77.5781 24.857 76.903V76.7802L25.0412 76.7189ZM18.2899 78.8056V71.993H19.2105V72.8522C19.3946 72.5453 19.5788 72.2998 19.8856 72.1157C20.1925 71.9316 20.4994 71.8702 20.929 71.8702C21.5428 71.8702 21.9724 71.993 22.2179 72.2998C22.4634 72.6067 22.5861 73.0977 22.5861 73.8956V78.867H21.6041V73.8342C21.6041 73.466 21.5428 73.1591 21.3586 72.975C21.1745 72.7908 20.929 72.7295 20.6221 72.7295C20.3153 72.7295 19.8856 72.8522 19.5788 73.1591C19.3333 73.4046 19.2105 73.7728 19.2105 74.2638V78.867H18.2285L18.2899 78.8056ZM16.019 78.8056C15.8962 78.8056 15.7735 78.8056 15.7121 78.8056C15.6507 78.8056 15.528 78.8056 15.4666 78.8056C15.2211 78.8056 14.9756 78.7442 14.8529 78.5601C14.6687 78.376 14.6073 78.1305 14.6073 77.8236C14.4846 78.1919 14.2391 78.4374 13.9936 78.6215C13.6867 78.8056 13.3798 78.9284 13.0116 78.9284C12.6433 78.9284 12.1523 78.7443 11.8455 78.4374C11.6 78.1305 11.4158 77.6395 11.4158 77.0257C11.4158 76.412 11.5386 75.9824 11.7841 75.6755C12.0296 75.3686 12.582 75.0617 13.4412 74.8162C14.1163 74.5707 14.4846 74.3252 14.4846 74.0183V73.4046C14.4846 73.0977 14.4232 72.9136 14.2391 72.7908C14.055 72.6681 13.8095 72.6067 13.4412 72.6067C13.073 72.6067 12.8275 72.6681 12.7047 72.8522C12.5206 73.0363 12.4592 73.2818 12.4592 73.6501V73.7728H11.5386C11.5386 73.0977 11.7227 72.5453 12.0296 72.2385C12.3365 71.9316 12.8275 71.7475 13.564 71.7475C14.3005 71.7475 14.6687 71.8702 14.9756 72.1771C15.2825 72.484 15.4052 72.9136 15.4052 73.5887V77.5781C15.4052 77.7622 15.4052 77.885 15.528 77.9464C15.5894 78.0077 15.7121 78.0691 15.8349 78.0691C15.9576 78.0691 15.8962 78.0691 15.9576 78.0691V78.8056H16.019ZM14.546 75.1231C14.4232 75.3072 14.055 75.4914 13.564 75.6755C13.564 75.6755 13.5026 75.6755 13.4412 75.6755C13.0116 75.8596 12.7047 75.9824 12.582 76.2279C12.4592 76.412 12.3978 76.7189 12.3978 77.0871C12.3978 77.4554 12.4592 77.7009 12.6433 77.885C12.7661 78.0691 13.0116 78.1919 13.2571 78.1919C13.6253 78.1919 13.9936 78.0691 14.1777 77.7622C14.4232 77.4554 14.546 77.0871 14.546 76.5347V75.1845V75.1231ZM6.81267 78.8056V71.993H7.67192V73.0977C7.79468 72.7295 8.04018 72.3612 8.28568 72.1771C8.59256 71.9316 8.89944 71.8088 9.26769 71.8088C9.63594 71.8088 9.45181 71.8088 9.51319 71.8088C9.51319 71.8088 9.63594 71.8088 9.69731 71.8088V72.8522C9.69731 72.8522 9.57456 72.8522 9.51319 72.7908C9.51319 72.7908 9.39044 72.7908 9.32907 72.7908C8.83807 72.7908 8.46981 72.975 8.16293 73.2818C7.91743 73.5887 7.7333 74.0797 7.7333 74.6321V78.8056H6.81267ZM2.33227 78.8056V70.5813H0V69.6607H5.58517V70.5813H3.37565V78.8056H2.33227Z" fill="white"/>
<path d="M231.079 78.8062V71.9935H231.938V72.7914C232.122 72.4845 232.367 72.2391 232.674 72.0549C232.981 71.8708 233.349 71.8094 233.718 71.8094C234.086 71.8094 234.393 71.8708 234.638 72.0549C234.884 72.2391 235.068 72.4845 235.129 72.7914C235.313 72.4845 235.559 72.2391 235.866 72.0549C236.173 71.8708 236.48 71.8094 236.909 71.8094C237.339 71.8094 237.891 71.9322 238.198 72.239C238.505 72.5459 238.628 72.9142 238.628 73.4666V78.7448H237.646V74.0189C237.646 73.4665 237.584 73.0983 237.462 72.9142C237.339 72.73 237.093 72.6073 236.725 72.6073C236.357 72.6073 235.989 72.7301 235.743 72.9756C235.498 73.2211 235.375 73.5893 235.375 73.9575V78.6835H234.393V73.9575C234.393 73.4665 234.331 73.0983 234.147 72.9142C234.025 72.73 233.718 72.6073 233.411 72.6073C233.104 72.6073 232.674 72.7301 232.367 72.9756C232.122 73.2211 231.999 73.5279 231.999 73.9575V78.7448H231.079V78.8062ZM227.58 76.4739H228.501C228.501 77.2718 228.317 77.8856 227.948 78.3152C227.58 78.7448 227.089 78.929 226.414 78.929C225.739 78.929 225.125 78.6221 224.757 78.0697C224.389 77.5173 224.204 76.5967 224.204 75.4306C224.204 74.2644 224.389 73.2211 224.757 72.6073C225.125 71.9935 225.677 71.748 226.414 71.748C227.15 71.748 227.641 71.9935 228.01 72.4845C228.378 72.9755 228.501 73.7734 228.501 74.7554C228.501 75.7374 228.501 75.0623 228.501 75.1237C228.501 75.1851 228.501 75.3078 228.501 75.3692H225.248V75.6761C225.248 76.5353 225.371 77.1491 225.555 77.5173C225.739 77.8856 226.046 78.1311 226.475 78.1311C226.905 78.1311 227.089 78.0083 227.273 77.7014C227.457 77.3946 227.58 77.0263 227.58 76.4739ZM225.248 74.6327H227.58V74.4486C227.58 73.8348 227.519 73.3438 227.335 73.0369C227.15 72.73 226.905 72.5459 226.537 72.5459C226.168 72.5459 225.8 72.73 225.616 73.0369C225.432 73.4052 225.309 73.8962 225.309 74.6327H225.248Z" fill="white"/>
<path d="M170.869 97.1562H239.303M0.675049 97.1562H71.3181" stroke="white" stroke-width="2" stroke-miterlimit="22.9"/>
<mask id="path-8-inside-1_790_133" fill="white">
<path d="M153.868 96.6061H158.287C158.287 95.8082 158.042 95.2558 157.673 94.7648C157.305 94.3352 156.753 94.0897 156.139 94.0897C155.525 94.0897 154.973 94.3352 154.543 94.7648C154.114 95.1944 153.93 95.8082 153.868 96.6061ZM153.868 97.2812C153.868 98.2018 154.052 98.8769 154.482 99.3679C154.912 99.859 155.464 100.104 156.139 100.104C156.814 100.104 157.121 99.9817 157.489 99.6748C157.858 99.3679 158.103 98.9997 158.164 98.4473H158.962C158.901 99.1838 158.594 99.7362 158.042 100.166C157.489 100.595 156.876 100.78 156.078 100.78C155.28 100.78 154.359 100.473 153.807 99.7976C153.254 99.1224 153.009 98.2632 153.009 97.097C153.009 95.9309 153.254 95.0103 153.807 94.3352C154.359 93.66 155.096 93.3531 156.078 93.3531C157.06 93.3531 157.735 93.66 158.287 94.2738C158.84 94.8875 159.085 95.7468 159.085 96.9129V97.1584H153.868V97.2812ZM150.186 100.595V94.2738H149.142V93.5986H150.186V92.3098C150.186 91.7574 150.308 91.3891 150.554 91.1436C150.799 90.8981 151.229 90.7754 151.843 90.7754C152.456 90.7754 151.965 90.7754 152.027 90.7754C152.088 90.7754 152.15 90.7754 152.272 90.7754V91.5119C152.272 91.5119 152.272 91.5119 152.211 91.5119C152.027 91.5119 151.904 91.5119 151.843 91.5119C151.536 91.5119 151.352 91.5733 151.229 91.696C151.106 91.8188 151.045 92.0643 151.045 92.3711V93.5986H152.334V94.2738H151.045V100.595H150.247H150.186ZM147.117 100.595V93.5986H147.915V100.595H147.117ZM147.117 92.1256V90.8981H147.915V92.1256H147.117ZM140.181 100.595V90.8981H141.102V99.7976H146.073V100.595H140.181ZM134.596 93.5986V100.227C134.596 101.271 134.289 102.13 133.737 102.621C133.185 103.173 132.325 103.419 131.282 103.419C130.239 103.419 129.809 103.235 129.318 102.866C128.827 102.498 128.52 102.007 128.52 101.393H129.379C129.379 101.823 129.625 102.13 129.932 102.375C130.239 102.621 130.73 102.744 131.343 102.744C132.203 102.744 132.816 102.559 133.246 102.13C133.676 101.7 133.86 101.086 133.86 100.289V99.4293C133.553 99.9203 133.246 100.227 132.816 100.473C132.387 100.718 131.957 100.841 131.405 100.841C130.423 100.841 129.686 100.534 129.134 99.8589C128.581 99.1838 128.275 98.3246 128.275 97.1584C128.275 95.9923 128.581 95.133 129.134 94.4579C129.686 93.7828 130.423 93.4759 131.405 93.4759C132.387 93.4759 132.448 93.5987 132.816 93.8442C133.246 94.0897 133.553 94.3965 133.86 94.8875V93.66H134.658L134.596 93.5986ZM129.134 97.097C129.134 98.0177 129.318 98.7542 129.748 99.3066C130.177 99.8589 130.73 100.104 131.466 100.104C132.203 100.104 132.816 99.8589 133.246 99.3066C133.676 98.7542 133.86 98.0791 133.86 97.097C133.86 96.115 133.676 95.4399 133.246 94.8875C132.816 94.3965 132.264 94.0897 131.466 94.0897C130.668 94.0897 130.116 94.3352 129.748 94.8875C129.318 95.3785 129.134 96.115 129.134 97.097ZM121.339 100.595V93.5986H122.137V94.7034C122.383 94.2738 122.751 93.9669 123.119 93.7214C123.487 93.4759 123.978 93.4145 124.469 93.4145C124.96 93.4145 125.39 93.4759 125.758 93.66C126.126 93.8441 126.372 94.0897 126.617 94.3965C126.74 94.5807 126.802 94.7648 126.863 95.0103C126.863 95.2558 126.924 95.624 126.924 96.1764V100.657H126.065V96.2992C126.065 95.5013 125.942 94.9489 125.697 94.642C125.451 94.3352 125.022 94.2124 124.347 94.2124C123.671 94.2124 123.18 94.3965 122.812 94.8262C122.444 95.2558 122.26 95.8082 122.26 96.5447V100.657H121.462L121.339 100.595ZM118.639 100.595V93.5986H119.437V100.595H118.639ZM118.639 92.1256V90.8981H119.437V92.1256H118.639ZM114.404 100.595V93.5986H115.202V94.8262C115.386 94.3351 115.693 94.0283 116.061 93.7828C116.429 93.5373 116.859 93.4145 117.411 93.4145H117.534V94.2738H117.411C116.736 94.2738 116.184 94.4579 115.815 94.8875C115.447 95.3172 115.263 95.9309 115.263 96.7288V100.595H114.404ZM106.486 97.097C106.486 95.9309 106.793 95.0103 107.346 94.3965C107.898 93.7828 108.696 93.4145 109.739 93.4145C110.783 93.4145 111.58 93.7214 112.133 94.3965C112.685 95.0103 112.992 95.9309 112.992 97.097C112.992 98.2632 112.685 99.1838 112.133 99.7976C111.58 100.411 110.783 100.78 109.739 100.78C108.696 100.78 107.959 100.473 107.346 99.7976C106.793 99.1838 106.486 98.2632 106.486 97.097ZM107.346 97.097C107.346 98.0177 107.53 98.7542 107.959 99.3066C108.389 99.7976 108.941 100.104 109.739 100.104C110.537 100.104 111.089 99.8589 111.519 99.3066C111.949 98.8156 112.133 98.0791 112.133 97.097C112.133 96.115 111.949 95.4399 111.519 94.8875C111.089 94.3965 110.537 94.0897 109.739 94.0897C108.941 94.0897 108.389 94.3352 107.959 94.8875C107.53 95.3785 107.346 96.115 107.346 97.097ZM104.277 91.5733V93.5986H105.566V94.2738H104.277V99.3679C104.277 99.6748 104.277 99.859 104.4 99.9817C104.461 100.104 104.584 100.104 104.829 100.104C105.075 100.104 105.013 100.104 105.136 100.104C105.259 100.104 105.382 100.104 105.627 99.9817V100.657C105.443 100.657 105.259 100.718 105.075 100.78C104.891 100.78 104.768 100.78 104.584 100.78C104.154 100.78 103.909 100.657 103.724 100.473C103.54 100.289 103.479 99.9203 103.479 99.3679V94.2738H102.497V93.5986H103.479V91.5733H104.277ZM96.2366 98.4473H97.0345C97.0345 98.9383 97.2186 99.3066 97.5869 99.6134C97.9551 99.9203 98.3848 100.043 98.9371 100.043C99.4895 100.043 99.9805 99.9203 100.349 99.6748C100.656 99.4293 100.84 99.1224 100.84 98.7542C100.84 98.2018 100.226 97.7722 98.9985 97.4653C98.0165 97.2198 97.3414 96.9743 96.9731 96.6674C96.6049 96.3605 96.4821 95.9923 96.4821 95.4399C96.4821 94.8875 96.7276 94.3352 97.1573 93.9669C97.5869 93.5986 98.2006 93.4145 98.8758 93.4145C99.5509 93.4145 100.287 93.5987 100.778 94.0283C101.269 94.3965 101.515 94.9489 101.576 95.6854H100.778C100.778 95.1944 100.594 94.8262 100.226 94.5807C99.9192 94.3352 99.4895 94.151 98.9371 94.151C98.3848 94.151 98.0779 94.2738 97.771 94.4579C97.4641 94.7034 97.3414 94.9489 97.3414 95.3172C97.3414 95.9309 97.9551 96.4219 99.244 96.6674C99.4281 96.6674 99.5509 96.7288 99.6123 96.7902C100.41 96.9743 100.963 97.2198 101.269 97.5267C101.576 97.8336 101.76 98.2018 101.76 98.7542C101.76 99.3066 101.515 99.8589 101.024 100.227C100.533 100.595 99.9191 100.78 99.0599 100.78C98.2006 100.78 97.5869 100.534 97.0959 100.104C96.6049 99.6748 96.3594 99.1224 96.298 98.3859L96.2366 98.4473ZM89.915 96.6061H94.334C94.334 95.8082 94.0885 95.2558 93.7202 94.7648C93.352 94.3352 92.7996 94.0897 92.1858 94.0897C91.5721 94.0897 91.0197 94.3352 90.5901 94.7648C90.1605 95.1944 89.9763 95.8082 89.915 96.6061ZM89.8536 97.2812C89.8536 98.2018 90.0377 98.8769 90.4673 99.3679C90.897 99.859 91.4493 100.104 92.1245 100.104C92.7996 100.104 93.1065 99.9817 93.4747 99.6748C93.843 99.3679 94.0885 98.9997 94.1498 98.4473H94.9477C94.8864 99.1838 94.5795 99.7362 94.0271 100.166C93.4747 100.595 92.861 100.78 92.0631 100.78C91.2652 100.78 90.3446 100.473 89.7922 99.7976C89.2398 99.1224 88.9943 98.2632 88.9943 97.097C88.9943 95.9309 89.2398 95.0103 89.7922 94.3352C90.3446 93.66 91.0811 93.3531 92.0631 93.3531C93.0451 93.3531 93.7202 93.66 94.2726 94.2738C94.825 94.8875 95.0705 95.7468 95.0705 96.9129V97.1584H89.8536V97.2812ZM80.8314 100.595V90.8981H84.0843C84.8208 90.8981 85.3732 90.8981 85.7414 91.0209C86.0483 91.0209 86.3552 91.205 86.6007 91.3278C86.9689 91.5119 87.2758 91.8188 87.4599 92.2484C87.6441 92.6166 87.7668 93.0463 87.7668 93.5373C87.7668 94.0283 87.6441 94.642 87.3372 95.0717C87.0917 95.5013 86.6621 95.7468 86.171 95.9309C86.5393 96.0537 86.8462 96.2378 87.0303 96.5447C87.2144 96.7902 87.3372 97.3425 87.3986 98.2018L87.5213 99.6748C87.5213 99.9203 87.5213 100.104 87.6441 100.227C87.6441 100.35 87.7668 100.473 87.8282 100.534V100.657H86.8462C86.8462 100.534 86.7234 100.411 86.7234 100.289C86.7234 100.104 86.7234 99.9203 86.6621 99.6748L86.5393 98.3859C86.4779 97.5267 86.2938 96.9129 86.0483 96.6674C85.8028 96.4219 85.3118 96.2992 84.5139 96.2992H81.6907V100.657H80.77L80.8314 100.595ZM81.752 95.5013H84.3298C85.2504 95.5013 85.8642 95.3785 86.2938 95.0103C86.6621 94.7034 86.9076 94.2124 86.9076 93.5373C86.9076 92.8622 86.8462 92.9235 86.7234 92.678C86.6007 92.4325 86.4165 92.2484 86.171 92.0643C85.9869 91.9415 85.8028 91.8801 85.4959 91.8188C85.2504 91.8188 84.8208 91.7574 84.2684 91.7574H81.752V95.5013Z"/>
</mask>
<path d="M153.868 96.6061H158.287C158.287 95.8082 158.042 95.2558 157.673 94.7648C157.305 94.3352 156.753 94.0897 156.139 94.0897C155.525 94.0897 154.973 94.3352 154.543 94.7648C154.114 95.1944 153.93 95.8082 153.868 96.6061ZM153.868 97.2812C153.868 98.2018 154.052 98.8769 154.482 99.3679C154.912 99.859 155.464 100.104 156.139 100.104C156.814 100.104 157.121 99.9817 157.489 99.6748C157.858 99.3679 158.103 98.9997 158.164 98.4473H158.962C158.901 99.1838 158.594 99.7362 158.042 100.166C157.489 100.595 156.876 100.78 156.078 100.78C155.28 100.78 154.359 100.473 153.807 99.7976C153.254 99.1224 153.009 98.2632 153.009 97.097C153.009 95.9309 153.254 95.0103 153.807 94.3352C154.359 93.66 155.096 93.3531 156.078 93.3531C157.06 93.3531 157.735 93.66 158.287 94.2738C158.84 94.8875 159.085 95.7468 159.085 96.9129V97.1584H153.868V97.2812ZM150.186 100.595V94.2738H149.142V93.5986H150.186V92.3098C150.186 91.7574 150.308 91.3891 150.554 91.1436C150.799 90.8981 151.229 90.7754 151.843 90.7754C152.456 90.7754 151.965 90.7754 152.027 90.7754C152.088 90.7754 152.15 90.7754 152.272 90.7754V91.5119C152.272 91.5119 152.272 91.5119 152.211 91.5119C152.027 91.5119 151.904 91.5119 151.843 91.5119C151.536 91.5119 151.352 91.5733 151.229 91.696C151.106 91.8188 151.045 92.0643 151.045 92.3711V93.5986H152.334V94.2738H151.045V100.595H150.247H150.186ZM147.117 100.595V93.5986H147.915V100.595H147.117ZM147.117 92.1256V90.8981H147.915V92.1256H147.117ZM140.181 100.595V90.8981H141.102V99.7976H146.073V100.595H140.181ZM134.596 93.5986V100.227C134.596 101.271 134.289 102.13 133.737 102.621C133.185 103.173 132.325 103.419 131.282 103.419C130.239 103.419 129.809 103.235 129.318 102.866C128.827 102.498 128.52 102.007 128.52 101.393H129.379C129.379 101.823 129.625 102.13 129.932 102.375C130.239 102.621 130.73 102.744 131.343 102.744C132.203 102.744 132.816 102.559 133.246 102.13C133.676 101.7 133.86 101.086 133.86 100.289V99.4293C133.553 99.9203 133.246 100.227 132.816 100.473C132.387 100.718 131.957 100.841 131.405 100.841C130.423 100.841 129.686 100.534 129.134 99.8589C128.581 99.1838 128.275 98.3246 128.275 97.1584C128.275 95.9923 128.581 95.133 129.134 94.4579C129.686 93.7828 130.423 93.4759 131.405 93.4759C132.387 93.4759 132.448 93.5987 132.816 93.8442C133.246 94.0897 133.553 94.3965 133.86 94.8875V93.66H134.658L134.596 93.5986ZM129.134 97.097C129.134 98.0177 129.318 98.7542 129.748 99.3066C130.177 99.8589 130.73 100.104 131.466 100.104C132.203 100.104 132.816 99.8589 133.246 99.3066C133.676 98.7542 133.86 98.0791 133.86 97.097C133.86 96.115 133.676 95.4399 133.246 94.8875C132.816 94.3965 132.264 94.0897 131.466 94.0897C130.668 94.0897 130.116 94.3352 129.748 94.8875C129.318 95.3785 129.134 96.115 129.134 97.097ZM121.339 100.595V93.5986H122.137V94.7034C122.383 94.2738 122.751 93.9669 123.119 93.7214C123.487 93.4759 123.978 93.4145 124.469 93.4145C124.96 93.4145 125.39 93.4759 125.758 93.66C126.126 93.8441 126.372 94.0897 126.617 94.3965C126.74 94.5807 126.802 94.7648 126.863 95.0103C126.863 95.2558 126.924 95.624 126.924 96.1764V100.657H126.065V96.2992C126.065 95.5013 125.942 94.9489 125.697 94.642C125.451 94.3352 125.022 94.2124 124.347 94.2124C123.671 94.2124 123.18 94.3965 122.812 94.8262C122.444 95.2558 122.26 95.8082 122.26 96.5447V100.657H121.462L121.339 100.595ZM118.639 100.595V93.5986H119.437V100.595H118.639ZM118.639 92.1256V90.8981H119.437V92.1256H118.639ZM114.404 100.595V93.5986H115.202V94.8262C115.386 94.3351 115.693 94.0283 116.061 93.7828C116.429 93.5373 116.859 93.4145 117.411 93.4145H117.534V94.2738H117.411C116.736 94.2738 116.184 94.4579 115.815 94.8875C115.447 95.3172 115.263 95.9309 115.263 96.7288V100.595H114.404ZM106.486 97.097C106.486 95.9309 106.793 95.0103 107.346 94.3965C107.898 93.7828 108.696 93.4145 109.739 93.4145C110.783 93.4145 111.58 93.7214 112.133 94.3965C112.685 95.0103 112.992 95.9309 112.992 97.097C112.992 98.2632 112.685 99.1838 112.133 99.7976C111.58 100.411 110.783 100.78 109.739 100.78C108.696 100.78 107.959 100.473 107.346 99.7976C106.793 99.1838 106.486 98.2632 106.486 97.097ZM107.346 97.097C107.346 98.0177 107.53 98.7542 107.959 99.3066C108.389 99.7976 108.941 100.104 109.739 100.104C110.537 100.104 111.089 99.8589 111.519 99.3066C111.949 98.8156 112.133 98.0791 112.133 97.097C112.133 96.115 111.949 95.4399 111.519 94.8875C111.089 94.3965 110.537 94.0897 109.739 94.0897C108.941 94.0897 108.389 94.3352 107.959 94.8875C107.53 95.3785 107.346 96.115 107.346 97.097ZM104.277 91.5733V93.5986H105.566V94.2738H104.277V99.3679C104.277 99.6748 104.277 99.859 104.4 99.9817C104.461 100.104 104.584 100.104 104.829 100.104C105.075 100.104 105.013 100.104 105.136 100.104C105.259 100.104 105.382 100.104 105.627 99.9817V100.657C105.443 100.657 105.259 100.718 105.075 100.78C104.891 100.78 104.768 100.78 104.584 100.78C104.154 100.78 103.909 100.657 103.724 100.473C103.54 100.289 103.479 99.9203 103.479 99.3679V94.2738H102.497V93.5986H103.479V91.5733H104.277ZM96.2366 98.4473H97.0345C97.0345 98.9383 97.2186 99.3066 97.5869 99.6134C97.9551 99.9203 98.3848 100.043 98.9371 100.043C99.4895 100.043 99.9805 99.9203 100.349 99.6748C100.656 99.4293 100.84 99.1224 100.84 98.7542C100.84 98.2018 100.226 97.7722 98.9985 97.4653C98.0165 97.2198 97.3414 96.9743 96.9731 96.6674C96.6049 96.3605 96.4821 95.9923 96.4821 95.4399C96.4821 94.8875 96.7276 94.3352 97.1573 93.9669C97.5869 93.5986 98.2006 93.4145 98.8758 93.4145C99.5509 93.4145 100.287 93.5987 100.778 94.0283C101.269 94.3965 101.515 94.9489 101.576 95.6854H100.778C100.778 95.1944 100.594 94.8262 100.226 94.5807C99.9192 94.3352 99.4895 94.151 98.9371 94.151C98.3848 94.151 98.0779 94.2738 97.771 94.4579C97.4641 94.7034 97.3414 94.9489 97.3414 95.3172C97.3414 95.9309 97.9551 96.4219 99.244 96.6674C99.4281 96.6674 99.5509 96.7288 99.6123 96.7902C100.41 96.9743 100.963 97.2198 101.269 97.5267C101.576 97.8336 101.76 98.2018 101.76 98.7542C101.76 99.3066 101.515 99.8589 101.024 100.227C100.533 100.595 99.9191 100.78 99.0599 100.78C98.2006 100.78 97.5869 100.534 97.0959 100.104C96.6049 99.6748 96.3594 99.1224 96.298 98.3859L96.2366 98.4473ZM89.915 96.6061H94.334C94.334 95.8082 94.0885 95.2558 93.7202 94.7648C93.352 94.3352 92.7996 94.0897 92.1858 94.0897C91.5721 94.0897 91.0197 94.3352 90.5901 94.7648C90.1605 95.1944 89.9763 95.8082 89.915 96.6061ZM89.8536 97.2812C89.8536 98.2018 90.0377 98.8769 90.4673 99.3679C90.897 99.859 91.4493 100.104 92.1245 100.104C92.7996 100.104 93.1065 99.9817 93.4747 99.6748C93.843 99.3679 94.0885 98.9997 94.1498 98.4473H94.9477C94.8864 99.1838 94.5795 99.7362 94.0271 100.166C93.4747 100.595 92.861 100.78 92.0631 100.78C91.2652 100.78 90.3446 100.473 89.7922 99.7976C89.2398 99.1224 88.9943 98.2632 88.9943 97.097C88.9943 95.9309 89.2398 95.0103 89.7922 94.3352C90.3446 93.66 91.0811 93.3531 92.0631 93.3531C93.0451 93.3531 93.7202 93.66 94.2726 94.2738C94.825 94.8875 95.0705 95.7468 95.0705 96.9129V97.1584H89.8536V97.2812ZM80.8314 100.595V90.8981H84.0843C84.8208 90.8981 85.3732 90.8981 85.7414 91.0209C86.0483 91.0209 86.3552 91.205 86.6007 91.3278C86.9689 91.5119 87.2758 91.8188 87.4599 92.2484C87.6441 92.6166 87.7668 93.0463 87.7668 93.5373C87.7668 94.0283 87.6441 94.642 87.3372 95.0717C87.0917 95.5013 86.6621 95.7468 86.171 95.9309C86.5393 96.0537 86.8462 96.2378 87.0303 96.5447C87.2144 96.7902 87.3372 97.3425 87.3986 98.2018L87.5213 99.6748C87.5213 99.9203 87.5213 100.104 87.6441 100.227C87.6441 100.35 87.7668 100.473 87.8282 100.534V100.657H86.8462C86.8462 100.534 86.7234 100.411 86.7234 100.289C86.7234 100.104 86.7234 99.9203 86.6621 99.6748L86.5393 98.3859C86.4779 97.5267 86.2938 96.9129 86.0483 96.6674C85.8028 96.4219 85.3118 96.2992 84.5139 96.2992H81.6907V100.657H80.77L80.8314 100.595ZM81.752 95.5013H84.3298C85.2504 95.5013 85.8642 95.3785 86.2938 95.0103C86.6621 94.7034 86.9076 94.2124 86.9076 93.5373C86.9076 92.8622 86.8462 92.9235 86.7234 92.678C86.6007 92.4325 86.4165 92.2484 86.171 92.0643C85.9869 91.9415 85.8028 91.8801 85.4959 91.8188C85.2504 91.8188 84.8208 91.7574 84.2684 91.7574H81.752V95.5013Z" fill="#3A3A39" stroke="white" stroke-width="2" mask="url(#path-8-inside-1_790_133)"/>
</svg>
